<svg width="557" height="128" viewBox="0 0 557 128" fill="none" xmlns="http://www.w3.org/2000/svg">
<path d="M56 43.4502L85.696 16.1222H59.328V9.01822H94.528V19.3862L65.024 46.7142H96.64V53.8182H56V43.4502Z" fill="#051014"/>
<path d="M117.373 54.5222C113.362 54.5222 109.842 53.6262 106.813 51.8342C103.826 50.0422 101.522 47.6102 99.9005 44.5382C98.3218 41.4662 97.5325 38.0742 97.5325 34.3622C97.5325 30.9916 98.2578 27.8129 99.7085 24.8262C101.159 21.8396 103.293 19.4289 106.109 17.5942C108.967 15.7169 112.423 14.7782 116.477 14.7782C121.597 14.7782 125.479 16.2929 128.125 19.3222C130.813 22.3516 132.157 26.7889 132.157 32.6342V34.4262H105.277C105.831 37.6262 107.282 40.2502 109.629 42.2982C111.975 44.3036 115.047 45.3062 118.845 45.3062C121.234 45.3062 123.644 44.8796 126.076 44.0262C128.508 43.1302 130.748 41.8716 132.797 40.2502V49.2742C130.45 51.0236 127.954 52.3462 125.309 53.2422C122.706 54.0956 120.061 54.5222 117.373 54.5222ZM122.812 29.9462C122.812 26.7462 122.173 24.3356 120.893 22.7142C119.613 21.0929 117.735 20.2822 115.261 20.2822C112.445 20.2822 110.162 21.1996 108.413 23.0342C106.663 24.8689 105.597 27.1729 105.213 29.9462H122.812Z" fill="#051014"/>
<path d="M140.656 21.4342H133.871V15.4182H140.656V6.07422H149.808V15.4182H162.16V21.4342H149.808V53.8182H140.656V21.4342Z" fill="#051014"/>
<path d="M209.793 53.12C205.782 53.12 202.262 52.224 199.233 50.432C196.246 48.64 193.942 46.208 192.321 43.136C190.742 40.064 189.953 36.672 189.953 32.96C189.953 29.5893 190.678 26.4107 192.129 23.424C193.58 20.4373 195.734 18.0267 198.593 16.192C201.452 14.3147 204.908 13.376 208.961 13.376C214.252 13.376 218.305 14.8267 221.121 17.728C223.98 20.6293 225.409 24.5333 225.409 29.44H215.681C215.681 22.4 213.036 18.88 207.745 18.88C205.612 18.88 203.777 19.4133 202.241 20.48C200.705 21.5467 199.532 22.976 198.721 24.768C197.953 26.5173 197.569 28.416 197.569 30.464C197.569 32.8533 198.102 35.072 199.169 37.12C200.236 39.1253 201.793 40.7467 203.841 41.984C205.932 43.1787 208.406 43.776 211.265 43.776C213.697 43.776 216.108 43.3493 218.497 42.496C220.929 41.6427 223.169 40.3627 225.217 38.656V47.872C222.87 49.6213 220.374 50.944 217.729 51.84C215.126 52.6933 212.481 53.12 209.793 53.12Z" fill="#F34213"/>
<path d="M229.726 1.536H238.942V52.416H229.726V1.536Z" fill="#F34213"/>
<path d="M244.586 14.016H253.802V52.416H244.586V14.016ZM244.522 0L253.866 0V10.368H244.522V0Z" fill="#F34213"/>
<path d="M277.686 53.12C273.675 53.12 270.155 52.224 267.126 50.432C264.139 48.64 261.835 46.208 260.214 43.136C258.635 40.064 257.846 36.672 257.846 32.96C257.846 29.5893 258.571 26.4107 260.022 23.424C261.472 20.4373 263.627 18.0267 266.486 16.192C269.344 14.3147 272.8 13.376 276.854 13.376C282.144 13.376 286.198 14.8267 289.014 17.728C291.872 20.6293 293.302 24.5333 293.302 29.44H283.574C283.574 22.4 280.928 18.88 275.638 18.88C273.504 18.88 271.67 19.4133 270.134 20.48C268.598 21.5467 267.424 22.976 266.614 24.768C265.846 26.5173 265.462 28.416 265.462 30.464C265.462 32.8533 265.995 35.072 267.062 37.12C268.128 39.1253 269.686 40.7467 271.734 41.984C273.824 43.1787 276.299 43.776 279.158 43.776C281.59 43.776 284 43.3493 286.39 42.496C288.822 41.6427 291.062 40.3627 293.11 38.656V47.872C290.763 49.6213 288.267 50.944 285.622 51.84C283.019 52.6933 280.374 53.12 277.686 53.12Z" fill="#F34213"/>
<path d="M306.834 33.472V52.416H297.618V1.536H306.834V30.464L322.898 14.016H334.546L316.242 31.68L336.018 52.416H324.178L306.834 33.472Z" fill="#F34213"/>
<path d="M354.858 53.12C351.487 53.12 348.266 52.6293 345.194 51.648C342.122 50.6667 339.562 49.216 337.514 47.296C335.466 45.3333 334.271 42.9867 333.93 40.256H345.514C345.855 42.7733 347.178 44.7147 349.482 46.08C351.786 47.4453 354.346 48.128 357.162 48.128C359.381 48.128 361.215 47.68 362.666 46.784C364.159 45.8453 364.906 44.608 364.906 43.072C364.906 41.536 364.202 40.384 362.794 39.616C361.386 38.8053 359.338 38.1653 356.65 37.696L350.89 36.736C346.41 36.0107 342.869 34.8373 340.266 33.216C337.663 31.5947 336.362 28.9067 336.362 25.152C336.362 22.6773 337.066 20.544 338.474 18.752C339.882 16.96 341.781 15.616 344.17 14.72C346.559 13.824 349.205 13.376 352.106 13.376C355.093 13.376 357.887 13.8667 360.49 14.848C363.135 15.7867 365.311 17.1947 367.018 19.072C368.725 20.9493 369.685 23.168 369.898 25.728H358.698C358.655 23.424 357.717 21.6533 355.882 20.416C354.09 19.1787 352.042 18.56 349.738 18.56C347.903 18.56 346.346 18.9867 345.066 19.84C343.829 20.6507 343.21 21.76 343.21 23.168C343.21 24.8747 343.957 26.112 345.45 26.88C346.943 27.6053 349.183 28.224 352.17 28.736L358.378 29.824C362.73 30.5067 366.143 31.6587 368.618 33.28C371.135 34.8587 372.394 37.3973 372.394 40.896C372.394 43.5413 371.605 45.7813 370.026 47.616C368.447 49.4507 366.335 50.8373 363.69 51.776C361.045 52.672 358.101 53.12 354.858 53.12Z" fill="#F34213"/>
<path fill-rule="evenodd" clip-rule="evenodd" d="M170.671 39.9832C170.525 39.0902 171.13 38.2477 172.023 38.1015L180.023 36.7918C180.916 36.6456 181.759 37.2511 181.905 38.1441C182.051 39.0372 181.446 39.8797 180.553 40.0259L172.553 41.3355C171.66 41.4817 170.817 40.8763 170.671 39.9832Z" fill="#F5C3C1"/>
<path fill-rule="evenodd" clip-rule="evenodd" d="M177.327 52.6486C176.592 52.1205 176.424 51.0967 176.952 50.3618L181.683 43.7789C182.211 43.0441 183.235 42.8765 183.97 43.4046C184.705 43.9327 184.872 44.9565 184.344 45.6914L179.613 52.2742C179.085 53.0091 178.062 53.1767 177.327 52.6486Z" fill="#F5C3C1"/>
<path fill-rule="evenodd" clip-rule="evenodd" d="M172.806 25.0474C173.334 24.3125 174.357 24.1449 175.092 24.673L181.675 29.4037C182.41 29.9318 182.578 30.9557 182.05 31.6905C181.521 32.4254 180.498 32.593 179.763 32.0649L173.18 27.3342C172.445 26.8061 172.277 25.7822 172.806 25.0474Z" fill="#F5C3C1"/>
<path fill-rule="evenodd" clip-rule="evenodd" d="M390.445 16.8165C390.564 17.7624 389.893 18.6256 388.947 18.7445L380.473 19.8089C379.527 19.9277 378.664 19.2572 378.545 18.3112C378.427 17.3653 379.097 16.5021 380.043 16.3833L388.517 15.3188C389.463 15.2 390.326 15.8705 390.445 16.8165Z" fill="#F5C3C1"/>
<path fill-rule="evenodd" clip-rule="evenodd" d="M383.937 3.22126C384.69 3.80614 384.827 4.89064 384.242 5.64356L379.002 12.3883C378.418 13.1412 377.333 13.2774 376.58 12.6925C375.827 12.1077 375.691 11.0232 376.276 10.2702L381.515 3.52554C382.1 2.77261 383.185 2.63638 383.937 3.22126Z" fill="#F5C3C1"/>
<path fill-rule="evenodd" clip-rule="evenodd" d="M387.61 32.458C387.025 33.2109 385.94 33.3472 385.187 32.7623L378.443 27.5229C377.69 26.9381 377.554 25.8536 378.139 25.1006C378.723 24.3477 379.808 24.2115 380.561 24.7964L387.306 30.0357C388.058 30.6206 388.195 31.7051 387.61 32.458Z" fill="#F5C3C1"/>
<path d="M418.904 54.5223C414.638 54.5223 410.947 53.5837 407.832 51.7063C404.76 49.829 402.435 47.397 400.856 44.4103C399.278 41.381 398.488 38.1597 398.488 34.7463C398.488 31.333 399.278 28.1117 400.856 25.0823C402.478 22.0103 404.867 19.5357 408.024 17.6583C411.182 15.7383 414.936 14.7783 419.288 14.7783C423.555 14.7783 427.224 15.717 430.296 17.5943C433.411 19.429 435.758 21.861 437.336 24.8903C438.915 27.9197 439.704 31.141 439.704 34.5543C439.704 38.0103 438.894 41.2743 437.272 44.3463C435.694 47.3757 433.326 49.829 430.168 51.7063C427.011 53.5837 423.256 54.5223 418.904 54.5223ZM407.896 34.1063C407.896 36.4957 408.344 38.7143 409.24 40.7623C410.136 42.7677 411.459 44.389 413.208 45.6263C415 46.821 417.112 47.4183 419.544 47.4183C422.915 47.4183 425.539 46.245 427.416 43.8983C429.336 41.5517 430.296 38.629 430.296 35.1303C430.296 32.741 429.848 30.5437 428.952 28.5383C428.056 26.533 426.712 24.933 424.92 23.7383C423.171 22.501 421.08 21.8823 418.648 21.8823C416.387 21.8823 414.446 22.437 412.824 23.5463C411.203 24.613 409.966 26.085 409.112 27.9623C408.302 29.797 407.896 31.845 407.896 34.1063Z" fill="#051014"/>
<path d="M443.761 15.4183H452.273V27.3863C453.382 23.5463 455.302 20.4957 458.033 18.2343C460.806 15.9303 463.814 14.7783 467.057 14.7783C470.086 14.7783 472.582 15.7383 474.545 17.6583C476.55 19.5357 477.595 22.245 477.681 25.7863C478.918 22.4157 480.817 19.749 483.377 17.7863C485.979 15.781 488.795 14.7783 491.825 14.7783C494.939 14.7783 497.478 15.781 499.441 17.7863C501.446 19.7917 502.449 22.6503 502.449 26.3623V53.8183H493.233V29.0503C493.233 26.8317 492.721 25.125 491.697 23.9303C490.673 22.7357 489.307 22.1383 487.601 22.1383C485.937 22.1383 484.337 22.7357 482.801 23.9303C481.265 25.0823 480.027 26.6823 479.089 28.7303C478.15 30.7783 477.681 33.061 477.681 35.5783V53.8183H468.529V29.0503C468.529 26.8743 467.995 25.189 466.929 23.9943C465.862 22.757 464.497 22.1383 462.833 22.1383C461.169 22.1383 459.569 22.7357 458.033 23.9303C456.539 25.0823 455.323 26.6823 454.385 28.7303C453.446 30.7783 452.977 33.061 452.977 35.5783V53.8183H443.761V15.4183Z" fill="#051014"/>
<path d="M0 88.5996H8.512V100.952C9.32267 98.2636 10.5813 95.9383 12.288 93.9756C14.0373 92.013 16 90.5196 18.176 89.4956C20.352 88.4716 22.5493 87.9596 24.768 87.9596C28.0107 87.9596 30.6987 88.9623 32.832 90.9676C35.008 92.973 36.096 95.853 36.096 99.6076V127H26.944V102.488C26.944 100.184 26.3467 98.413 25.152 97.1756C24 95.9383 22.464 95.3196 20.544 95.3196C18.7093 95.3196 16.9173 95.8956 15.168 97.0476C13.4187 98.1996 11.9893 99.8423 10.88 101.976C9.77067 104.109 9.216 106.562 9.216 109.336V127H0L0 88.5996Z" fill="#051014"/>
<path d="M50.759 127.704C47.3883 127.704 44.7003 126.893 42.695 125.272C40.6897 123.608 39.687 121.282 39.687 118.296C39.687 115.736 40.3697 113.73 41.735 112.28C43.1003 110.786 44.8497 109.72 46.983 109.08C49.1163 108.44 51.7617 107.928 54.919 107.544L62.279 106.52C65.1803 106.178 67.4417 105.517 69.063 104.536C70.6843 103.512 71.495 101.976 71.495 99.9276C71.495 98.0076 70.7057 96.5143 69.127 95.4476C67.591 94.381 65.7137 93.8476 63.495 93.8476C61.7457 93.8476 60.0603 94.189 58.439 94.8716C56.8177 95.5543 55.4737 96.5783 54.407 97.9436C53.3403 99.309 52.7857 100.952 52.743 102.872H42.951C43.0363 99.9703 43.9323 97.389 45.639 95.1276C47.3457 92.8663 49.607 91.117 52.423 89.8796C55.2817 88.5996 58.3963 87.9596 61.767 87.9596C66.2043 87.9596 69.8523 89.1116 72.711 91.4156C75.6123 93.677 77.063 97.0263 77.063 101.464V127H68.487V116.376C67.719 118.509 66.4603 120.45 64.711 122.2C62.9617 123.906 60.871 125.25 58.439 126.232C56.007 127.213 53.447 127.704 50.759 127.704ZM49.095 116.632C49.095 118.04 49.6497 119.149 50.759 119.96C51.911 120.728 53.3617 121.112 55.111 121.112C57.031 121.112 58.951 120.664 60.871 119.768C62.8337 118.829 64.4763 117.442 65.799 115.608C67.1217 113.773 67.847 111.597 67.975 109.08C66.3963 109.72 64.647 110.189 62.727 110.488L57.159 111.384C55.239 111.682 53.7243 112.002 52.615 112.344C51.5483 112.642 50.695 113.133 50.055 113.816C49.415 114.498 49.095 115.437 49.095 116.632Z" fill="#051014"/>
<path d="M91.744 127.704C88.3733 127.704 85.6853 126.893 83.68 125.272C81.6747 123.608 80.672 121.282 80.672 118.296C80.672 115.736 81.3547 113.73 82.72 112.28C84.0853 110.786 85.8347 109.72 87.968 109.08C90.1013 108.44 92.7467 107.928 95.904 107.544L103.264 106.52C106.165 106.178 108.427 105.517 110.048 104.536C111.669 103.512 112.48 101.976 112.48 99.9276C112.48 98.0076 111.691 96.5143 110.112 95.4476C108.576 94.381 106.699 93.8476 104.48 93.8476C102.731 93.8476 101.045 94.189 99.424 94.8716C97.8027 95.5543 96.4587 96.5783 95.392 97.9436C94.3253 99.309 93.7707 100.952 93.728 102.872H83.936C84.0213 99.9703 84.9173 97.389 86.624 95.1276C88.3307 92.8663 90.592 91.117 93.408 89.8796C96.2667 88.5996 99.3813 87.9596 102.752 87.9596C107.189 87.9596 110.837 89.1116 113.696 91.4156C116.597 93.677 118.048 97.0263 118.048 101.464V127H109.472V116.376C108.704 118.509 107.445 120.45 105.696 122.2C103.947 123.906 101.856 125.25 99.424 126.232C96.992 127.213 94.432 127.704 91.744 127.704ZM90.08 116.632C90.08 118.04 90.6347 119.149 91.744 119.96C92.896 120.728 94.3467 121.112 96.096 121.112C98.016 121.112 99.936 120.664 101.856 119.768C103.819 118.829 105.461 117.442 106.784 115.608C108.107 113.773 108.832 111.597 108.96 109.08C107.381 109.72 105.632 110.189 103.712 110.488L98.144 111.384C96.224 111.682 94.7093 112.002 93.6 112.344C92.5333 112.642 91.68 113.133 91.04 113.816C90.4 114.498 90.08 115.437 90.08 116.632Z" fill="#051014"/>
<path d="M123.705 88.5996H132.217V100.44C133.198 96.301 134.905 93.2076 137.337 91.1596C139.769 89.1116 142.542 88.0876 145.657 88.0876C147.705 88.0876 149.54 88.5996 151.161 89.6236V98.6476C150.18 97.965 149.07 97.453 147.833 97.1116C146.596 96.7276 145.337 96.5356 144.057 96.5356C141.625 96.5356 139.385 97.1756 137.337 98.4556C135.332 99.7356 133.86 101.528 132.921 103.832V127H123.705V88.5996Z" fill="#051014"/>
<path d="M185.379 127.704C182.008 127.704 178.958 127.085 176.227 125.848C173.539 124.61 171.406 122.754 169.827 120.28C168.248 117.762 167.459 114.69 167.459 111.064C167.459 106.968 168.419 103.085 170.339 99.4156C172.302 95.7463 175.075 92.8023 178.659 90.5836C182.243 88.3223 186.339 87.1916 190.947 87.1916C195.982 87.1916 199.864 88.365 202.595 90.7116C205.326 93.0156 206.691 96.2796 206.691 100.504C206.691 101.485 206.584 102.68 206.371 104.088H193.059C193.272 102.893 193.379 101.784 193.379 100.76C193.379 96.7063 191.566 94.6796 187.939 94.6796C186.104 94.6796 184.44 95.213 182.947 96.2796C181.496 97.3463 180.366 98.733 179.555 100.44C178.744 102.104 178.339 103.832 178.339 105.624C178.339 108.696 179.363 111 181.411 112.536C183.459 114.072 186.126 114.84 189.411 114.84C191.928 114.84 194.552 114.392 197.283 113.496C200.056 112.6 202.51 111.384 204.643 109.848L201.635 123.096C199.032 124.589 196.323 125.741 193.507 126.552C190.734 127.32 188.024 127.704 185.379 127.704Z" fill="#051014"/>
<path d="M226.697 127.704C222.644 127.704 219.21 126.936 216.394 125.4C213.578 123.864 211.487 121.816 210.122 119.256C208.756 116.696 208.074 113.88 208.074 110.808C208.074 106.797 209.162 102.978 211.338 99.3516C213.514 95.725 216.564 92.8023 220.49 90.5836C224.415 88.3223 228.852 87.1916 233.801 87.1916C237.897 87.1916 241.332 87.9596 244.105 89.4956C246.922 91.0316 249.012 93.0796 250.378 95.6396C251.786 98.1996 252.49 101.016 252.49 104.088C252.49 108.141 251.402 111.981 249.226 115.608C247.05 119.234 243.978 122.157 240.01 124.376C236.084 126.594 231.647 127.704 226.697 127.704ZM221.193 109.08C221.193 111.64 221.876 113.773 223.242 115.48C224.65 117.186 226.655 118.04 229.258 118.04C231.306 118.04 233.097 117.464 234.633 116.312C236.169 115.117 237.343 113.581 238.154 111.704C238.964 109.784 239.37 107.821 239.37 105.816C239.37 103.256 238.666 101.122 237.258 99.4156C235.892 97.709 233.908 96.8556 231.305 96.8556C229.215 96.8556 227.402 97.453 225.866 98.6476C224.372 99.8423 223.22 101.378 222.41 103.256C221.599 105.133 221.193 107.074 221.193 109.08Z" fill="#051014"/>
<path d="M260.505 87.8316H272.217L269.465 99.6716C270.659 96.9836 272.238 94.701 274.201 92.8236C276.163 90.9463 278.275 89.5383 280.537 88.5996C282.798 87.661 284.995 87.1916 287.129 87.1916C290.457 87.1916 292.931 88.0663 294.553 89.8156C296.217 91.5223 297.049 93.7196 297.049 96.4076C297.049 97.4316 296.921 98.4983 296.665 99.6076L290.393 127H277.721L283.289 102.872C283.417 102.36 283.481 101.869 283.481 101.4C283.481 100.205 283.139 99.2236 282.457 98.4556C281.774 97.6876 280.75 97.3036 279.385 97.3036C278.019 97.3036 276.59 97.7516 275.097 98.6476C273.603 99.501 272.238 100.802 271.001 102.552C269.763 104.301 268.846 106.434 268.249 108.952L264.089 127H251.48L260.505 87.8316Z" fill="#051014"/>
<path d="M300.68 87.8316H313.672L315.08 119.832L330.696 87.8316H344.456L323.336 127H303.816L300.68 87.8316Z" fill="#051014"/>
<path d="M357.944 127.704C354.531 127.704 351.459 127.064 348.728 125.784C346.04 124.504 343.907 122.626 342.328 120.152C340.792 117.634 340.024 114.584 340.024 111C340.024 106.989 340.984 103.149 342.904 99.4796C344.867 95.8103 347.619 92.845 351.16 90.5836C354.744 88.3223 358.84 87.1916 363.448 87.1916C368.269 87.1916 371.939 88.3436 374.456 90.6476C376.973 92.909 378.232 96.1516 378.232 100.376C378.232 101.954 378.083 103.512 377.784 105.048L377.464 106.648H350.968C351.224 109.378 352.355 111.426 354.36 112.792C356.365 114.157 358.904 114.84 361.976 114.84C364.536 114.84 367.16 114.392 369.848 113.496C372.579 112.6 375.032 111.384 377.208 109.848L374.2 123.096C371.64 124.589 368.952 125.741 366.136 126.552C363.363 127.32 360.632 127.704 357.944 127.704ZM365.24 101.592C365.368 100.952 365.432 100.333 365.432 99.7356C365.432 98.2423 365.027 97.0263 364.216 96.0876C363.405 95.149 362.189 94.6796 360.568 94.6796C358.477 94.6796 356.643 95.341 355.064 96.6636C353.528 97.9436 352.376 99.5863 351.608 101.592H365.24Z" fill="#051014"/>
<path d="M386.522 87.8316H398.234L395.29 100.44C397.039 95.8743 399.301 92.5463 402.074 90.4556C404.847 88.365 407.813 87.3196 410.97 87.3196C412.506 87.3196 413.978 87.6183 415.386 88.2156L412.57 100.312C411.802 99.885 410.885 99.5436 409.818 99.2876C408.751 99.0316 407.663 98.9036 406.554 98.9036C404.378 98.9036 402.266 99.4156 400.218 100.44C398.213 101.421 396.57 102.765 395.29 104.472L390.106 127H377.434L386.522 87.8316Z" fill="#051014"/>
<path d="M432.845 127.704C428.962 127.704 425.335 127.192 421.965 126.168C418.637 125.144 415.906 123.629 413.772 121.624C411.682 119.576 410.551 117.144 410.38 114.328H426.253C426.338 116.632 427.383 118.402 429.389 119.64C431.437 120.834 433.783 121.432 436.428 121.432C438.476 121.432 440.183 121.069 441.548 120.344C442.956 119.576 443.661 118.53 443.661 117.208C443.661 115.97 443.042 115.01 441.805 114.328C440.61 113.645 438.903 113.154 436.685 112.856L431.885 112.088C428.855 111.704 426.253 111.192 424.077 110.552C421.901 109.912 420.045 108.824 418.509 107.288C417.015 105.752 416.268 103.64 416.268 100.952C416.268 98.0076 417.143 95.5116 418.893 93.4636C420.685 91.373 423.01 89.8156 425.868 88.7916C428.77 87.725 431.884 87.1916 435.212 87.1916C438.54 87.1916 441.612 87.725 444.428 88.7916C447.287 89.8156 449.57 91.3516 451.277 93.3996C453.026 95.405 453.922 97.7943 453.965 100.568H438.413C438.413 98.3916 437.687 96.749 436.237 95.6396C434.786 94.5303 433.079 93.9756 431.117 93.9756C429.538 93.9756 428.194 94.3383 427.085 95.0636C426.018 95.7463 425.484 96.6636 425.484 97.8156C425.484 99.2236 426.253 100.269 427.789 100.952C429.325 101.592 431.586 102.125 434.573 102.552L439.565 103.384C443.831 103.981 447.202 105.026 449.677 106.52C452.151 108.013 453.389 110.488 453.389 113.944C453.389 116.845 452.493 119.341 450.701 121.432C448.909 123.48 446.455 125.037 443.341 126.104C440.226 127.17 436.727 127.704 432.845 127.704Z" fill="#051014"/>
<path d="M462.556 87.8316H475.164L466.14 127H453.532L462.556 87.8316ZM465.82 73.4316H478.556L475.868 84.8236H463.196L465.82 73.4316Z" fill="#051014"/>
<path d="M492.822 127.704C489.408 127.704 486.336 127.064 483.605 125.784C480.917 124.504 478.784 122.626 477.206 120.152C475.67 117.634 474.902 114.584 474.902 111C474.902 106.989 475.861 103.149 477.781 99.4796C479.744 95.8103 482.496 92.845 486.038 90.5836C489.622 88.3223 493.718 87.1916 498.326 87.1916C503.147 87.1916 506.816 88.3436 509.333 90.6476C511.851 92.909 513.109 96.1516 513.109 100.376C513.109 101.954 512.96 103.512 512.661 105.048L512.341 106.648H485.846C486.102 109.378 487.232 111.426 489.238 112.792C491.243 114.157 493.782 114.84 496.854 114.84C499.414 114.84 502.037 114.392 504.725 113.496C507.456 112.6 509.91 111.384 512.086 109.848L509.078 123.096C506.518 124.589 503.83 125.741 501.014 126.552C498.24 127.32 495.51 127.704 492.822 127.704ZM500.117 101.592C500.245 100.952 500.31 100.333 500.31 99.7356C500.31 98.2423 499.904 97.0263 499.094 96.0876C498.283 95.149 497.067 94.6796 495.445 94.6796C493.355 94.6796 491.52 95.341 489.941 96.6636C488.405 97.9436 487.254 99.5863 486.486 101.592H500.117Z" fill="#051014"/>
<path d="M535.799 127.704C531.917 127.704 528.29 127.192 524.919 126.168C521.591 125.144 518.861 123.629 516.727 121.624C514.637 119.576 513.506 117.144 513.336 114.328H529.208C529.293 116.632 530.338 118.402 532.344 119.64C534.392 120.834 536.738 121.432 539.383 121.432C541.431 121.432 543.138 121.069 544.503 120.344C545.911 119.576 546.615 118.53 546.615 117.208C546.615 115.97 545.997 115.01 544.76 114.328C543.565 113.645 541.858 113.154 539.639 112.856L534.839 112.088C531.81 111.704 529.207 111.192 527.031 110.552C524.855 109.912 523 108.824 521.464 107.288C519.97 105.752 519.224 103.64 519.224 100.952C519.224 98.0076 520.098 95.5116 521.847 93.4636C523.639 91.373 525.965 89.8156 528.823 88.7916C531.725 87.725 534.839 87.1916 538.167 87.1916C541.495 87.1916 544.567 87.725 547.383 88.7916C550.242 89.8156 552.525 91.3516 554.232 93.3996C555.981 95.405 556.877 97.7943 556.919 100.568H541.367C541.367 98.3916 540.642 96.749 539.191 95.6396C537.741 94.5303 536.034 93.9756 534.071 93.9756C532.493 93.9756 531.149 94.3383 530.039 95.0636C528.973 95.7463 528.44 96.6636 528.44 97.8156C528.44 99.2236 529.207 100.269 530.743 100.952C532.279 101.592 534.541 102.125 537.527 102.552L542.519 103.384C546.786 103.981 550.157 105.026 552.631 106.52C555.106 108.013 556.344 110.488 556.344 113.944C556.344 116.845 555.448 119.341 553.656 121.432C551.864 123.48 549.41 125.037 546.295 126.104C543.181 127.17 539.682 127.704 535.799 127.704Z" fill="#051014"/>
</svg>
