<svg width="750" height="173" viewBox="0 0 750 173" fill="none" xmlns="http://www.w3.org/2000/svg">
<path d="M119.948 30.3703H110.336V21.8461H119.948V8.60645H132.916V21.8461H150.418V30.3703H132.916V76.2558H119.948V30.3703Z" fill="#051014"/>
<path d="M86.9593 77.2534C81.2765 77.2534 76.289 75.9839 71.9967 73.4447C67.7648 70.9056 64.5002 67.4597 62.2029 63.1069C59.9661 58.7542 58.8477 53.948 58.8477 48.6884C58.8477 43.9124 59.8754 39.4085 61.9309 35.1766C63.9863 30.9448 67.0091 27.5291 70.9991 24.9295C75.0496 22.2695 79.9465 20.9395 85.6898 20.9395C92.9444 20.9395 98.4458 23.0856 102.194 27.3779C106.003 31.6702 107.907 37.9576 107.907 46.2399V48.7791H69.8203C70.6062 53.3132 72.6617 57.0312 75.9867 59.933C79.3117 62.7744 83.6645 64.1951 89.045 64.1951C92.4305 64.1951 95.8462 63.5906 99.2922 62.3815C102.738 61.1119 105.912 59.3285 108.814 57.0312V69.8174C105.489 72.2961 101.952 74.1702 98.204 75.4398C94.5162 76.6489 90.768 77.2534 86.9593 77.2534ZM94.6673 42.4313C94.6673 37.8971 93.7605 34.4814 91.9469 32.1841C90.1332 29.8868 87.4732 28.7382 83.9668 28.7382C79.9767 28.7382 76.7424 30.038 74.2637 32.6375C71.7851 35.2371 70.2737 38.5017 69.7296 42.4313H94.6673Z" fill="#051014"/>
<path d="M0 61.5656L42.0768 22.8441H4.7155V12.7783H54.591V27.4689L12.7863 66.1904H57.5835V76.2562H0L0 61.5656Z" fill="#051014"/>
<path d="M423.458 75.2671C418.682 75.2671 414.118 74.5719 409.765 73.1814C405.412 71.7909 401.785 69.7355 398.883 67.015C395.981 64.234 394.288 60.909 393.805 57.0399H410.218C410.702 60.6067 412.576 63.3574 415.841 65.292C419.105 67.2266 422.732 68.1938 426.723 68.1938C429.866 68.1938 432.466 67.5591 434.521 66.2895C436.637 64.9595 437.695 63.2063 437.695 61.0299C437.695 58.8535 436.698 57.2212 434.703 56.133C432.708 54.9844 429.806 54.0776 425.997 53.4126L417.836 52.0523C411.488 51.0246 406.47 49.3621 402.782 47.0648C399.095 44.7675 397.251 40.9588 397.251 35.6387C397.251 32.1323 398.248 29.1096 400.243 26.5705C402.238 24.0314 404.928 22.127 408.314 20.8575C411.699 19.5879 415.448 18.9531 419.559 18.9531C423.79 18.9531 427.75 19.6484 431.438 21.0388C435.186 22.3688 438.269 24.3639 440.688 27.0239C443.106 29.6839 444.466 32.8276 444.768 36.4549H428.899C428.838 33.1903 427.508 30.6814 424.909 28.9282C422.37 27.175 419.468 26.2984 416.203 26.2984C413.604 26.2984 411.397 26.903 409.583 28.1121C407.83 29.2607 406.954 30.8326 406.954 32.8276C406.954 35.2458 408.012 36.999 410.128 38.0872C412.244 39.1149 415.417 39.9915 419.649 40.717L428.445 42.2586C434.612 43.2259 439.448 44.8582 442.955 47.1555C446.522 49.3923 448.305 52.9894 448.305 57.9467C448.305 61.6949 447.187 64.8688 444.95 67.4684C442.713 70.068 439.72 72.0327 435.972 73.3628C432.224 74.6323 428.053 75.2671 423.458 75.2671Z" fill="#F34213"/>
<path d="M355.41 47.4274V74.2695H342.352V2.17676H355.41V43.1653L378.171 19.8599H394.676L368.74 44.8883L396.761 74.2695H379.985L355.41 47.4274Z" fill="#F34213"/>
<path d="M314.108 75.2671C308.425 75.2671 303.437 73.9975 299.145 71.4584C294.913 68.9193 291.649 65.4734 289.351 61.1206C287.115 56.7678 285.996 51.9616 285.996 46.702C285.996 41.9261 287.024 37.4222 289.079 33.1903C291.135 28.9585 294.188 25.5427 298.238 22.9432C302.289 20.2831 307.186 18.9531 312.929 18.9531C320.425 18.9531 326.169 21.0086 330.159 25.1195C334.209 29.2305 336.234 34.7621 336.234 41.7145H322.451C322.451 31.7394 318.702 26.7518 311.206 26.7518C308.183 26.7518 305.584 27.5075 303.407 29.0189C301.231 30.5303 299.568 32.5555 298.42 35.0947C297.331 37.5733 296.787 40.2636 296.787 43.1654C296.787 46.5509 297.543 49.6946 299.054 52.5964C300.566 55.4378 302.772 57.7351 305.674 59.4883C308.637 61.181 312.143 62.0274 316.193 62.0274C319.639 62.0274 323.055 61.4229 326.441 60.2138C329.887 59.0047 333.06 57.191 335.962 54.7728V67.8311C332.637 70.3098 329.101 72.1839 325.352 73.4534C321.665 74.6625 317.916 75.2671 314.108 75.2671Z" fill="#F34213"/>
<path d="M267.212 19.8595H280.27V74.2692H267.212V19.8595ZM267.121 0L280.361 0V14.6906H267.121V0Z" fill="#F34213"/>
<path d="M246.156 2.17676H259.215V74.2695H246.156V2.17676Z" fill="#F34213"/>
<path d="M217.912 75.2671C212.23 75.2671 207.242 73.9975 202.95 71.4584C198.718 68.9193 195.453 65.4734 193.156 61.1206C190.919 56.7678 189.801 51.9616 189.801 46.702C189.801 41.9261 190.829 37.4222 192.884 33.1903C194.939 28.9585 197.992 25.5427 202.043 22.9432C206.093 20.2831 210.99 18.9531 216.734 18.9531C224.23 18.9531 229.973 21.0086 233.963 25.1195C238.014 29.2305 240.039 34.7621 240.039 41.7145H226.255C226.255 31.7394 222.507 26.7518 215.011 26.7518C211.988 26.7518 209.388 27.5075 207.212 29.0189C205.035 30.5303 203.373 32.5555 202.224 35.0947C201.136 37.5733 200.592 40.2636 200.592 43.1654C200.592 46.5509 201.348 49.6946 202.859 52.5964C204.37 55.4378 206.577 57.7351 209.479 59.4883C212.441 61.181 215.948 62.0274 219.998 62.0274C223.444 62.0274 226.86 61.4229 230.245 60.2138C233.691 59.0047 236.865 57.191 239.767 54.7728V67.8311C236.442 70.3098 232.905 72.1839 229.157 73.4534C225.469 74.6625 221.721 75.2671 217.912 75.2671Z" fill="#F34213"/>
<path fill-rule="evenodd" clip-rule="evenodd" d="M162.484 56.6525C162.277 55.3871 163.135 54.1934 164.401 53.9862L175.736 52.1306C177.001 51.9234 178.195 52.7813 178.402 54.0467C178.609 55.312 177.751 56.5058 176.486 56.7129L165.151 58.5686C163.885 58.7757 162.692 57.9179 162.484 56.6525Z" fill="#F5C3C1"/>
<path fill-rule="evenodd" clip-rule="evenodd" d="M171.909 74.5971C170.868 73.8488 170.63 72.3981 171.378 71.3569L178.081 62.0295C178.83 60.9883 180.28 60.7508 181.322 61.499C182.363 62.2473 182.6 63.698 181.852 64.7392L175.149 74.0666C174.401 75.1078 172.95 75.3453 171.909 74.5971Z" fill="#F5C3C1"/>
<path fill-rule="evenodd" clip-rule="evenodd" d="M165.508 35.4898C166.257 34.4486 167.707 34.2111 168.749 34.9594L178.076 41.6624C179.117 42.4107 179.355 43.8614 178.606 44.9026C177.858 45.9439 176.407 46.1813 175.366 45.4331L166.039 38.73C164.998 37.9817 164.76 36.531 165.508 35.4898Z" fill="#F5C3C1"/>
<path fill-rule="evenodd" clip-rule="evenodd" d="M473.883 23.8279C474.051 25.1683 473.101 26.3914 471.761 26.5597L459.754 28.068C458.413 28.2364 457.19 27.2863 457.022 25.9459C456.853 24.6056 457.804 23.3825 459.144 23.2141L471.151 21.7059C472.491 21.5375 473.714 22.4876 473.883 23.8279Z" fill="#F5C3C1"/>
<path fill-rule="evenodd" clip-rule="evenodd" d="M464.662 4.56392C465.729 5.39264 465.922 6.92929 465.093 7.99612L457.67 17.5528C456.841 18.6196 455.304 18.8127 454.237 17.984C453.17 17.1552 452.977 15.6186 453.806 14.5517L461.23 4.99506C462.059 3.92822 463.595 3.7352 464.662 4.56392Z" fill="#F5C3C1"/>
<path fill-rule="evenodd" clip-rule="evenodd" d="M469.864 45.9902C469.035 47.057 467.498 47.2501 466.432 46.4213L456.875 38.9976C455.808 38.1689 455.615 36.6323 456.444 35.5654C457.273 34.4986 458.809 34.3056 459.876 35.1343L469.433 42.558C470.5 43.3867 470.693 44.9234 469.864 45.9902Z" fill="#F5C3C1"/>
<path d="M549.426 21.8463H561.487V38.804C563.058 33.363 565.779 29.0404 569.648 25.8363C573.578 22.5717 577.84 20.9395 582.434 20.9395C586.727 20.9395 590.263 22.2997 593.044 25.0202C595.886 27.6802 597.367 31.5191 597.488 36.5369C599.241 31.7609 601.931 27.9825 605.558 25.2015C609.246 22.3601 613.236 20.9395 617.529 20.9395C621.942 20.9395 625.539 22.3601 628.32 25.2015C631.161 28.0429 632.582 32.0934 632.582 37.353V76.2559H619.524V41.1617C619.524 38.018 618.798 35.5998 617.347 33.9071C615.896 32.2143 613.962 31.368 611.543 31.368C609.186 31.368 606.919 32.2143 604.742 33.9071C602.566 35.5394 600.813 37.8064 599.483 40.7083C598.153 43.6101 597.488 46.8445 597.488 50.4113V76.2559H584.52V41.1617C584.52 38.0785 583.764 35.6905 582.253 33.9978C580.742 32.2446 578.807 31.368 576.449 31.368C574.091 31.368 571.824 32.2143 569.648 33.9071C567.532 35.5394 565.809 37.8064 564.479 40.7083C563.149 43.6101 562.484 46.8445 562.484 50.4113V76.2559H549.426V21.8463Z" fill="#051014"/>
<path d="M514.205 77.2534C508.16 77.2534 502.93 75.9234 498.517 73.2634C494.164 70.6034 490.869 67.1574 488.633 62.9256C486.396 58.6332 485.277 54.0689 485.277 49.2325C485.277 44.3961 486.396 39.8317 488.633 35.5394C490.93 31.1866 494.315 27.6802 498.789 25.0202C503.263 22.2997 508.583 20.9395 514.749 20.9395C520.795 20.9395 525.994 22.2695 530.347 24.9295C534.76 27.5291 538.085 30.975 540.322 35.2673C542.559 39.5596 543.677 44.124 543.677 48.9604C543.677 53.8573 542.528 58.4821 540.231 62.8349C537.994 67.1272 534.639 70.6034 530.165 73.2634C525.692 75.9234 520.372 77.2534 514.205 77.2534ZM498.608 48.3256C498.608 51.7111 499.242 54.8548 500.512 57.7566C501.782 60.598 503.656 62.8953 506.134 64.6485C508.673 66.3413 511.666 67.1876 515.112 67.1876C519.888 67.1876 523.606 65.5251 526.266 62.2001C528.986 58.8751 530.347 54.7339 530.347 49.7766C530.347 46.3911 529.712 43.2776 528.442 40.4362C527.173 37.5948 525.268 35.3278 522.729 33.635C520.251 31.8818 517.288 31.0052 513.842 31.0052C510.638 31.0052 507.888 31.7912 505.59 33.363C503.293 34.8744 501.54 36.9601 500.331 39.6201C499.182 42.2197 498.608 45.1215 498.608 48.3256Z" fill="#051014"/>
<path d="M698.22 116.451H714.815L710.915 133.227C712.608 129.418 714.845 126.184 717.626 123.524C720.407 120.864 723.399 118.869 726.604 117.539C729.808 116.209 732.921 115.544 735.944 115.544C740.659 115.544 744.166 116.783 746.463 119.262C748.821 121.68 750 124.794 750 128.602C750 130.053 749.818 131.565 749.456 133.136L740.569 171.949H722.614L730.503 137.761C730.684 137.036 730.775 136.341 730.775 135.676C730.775 133.983 730.291 132.592 729.324 131.504C728.357 130.416 726.906 129.872 724.971 129.872C723.037 129.872 721.011 130.507 718.896 131.776C716.78 132.985 714.845 134.829 713.092 137.308C711.339 139.786 710.039 142.809 709.192 146.376L703.298 171.949H685.434L698.22 116.451Z" fill="#051014"/>
<path d="M657.731 172.946C652.895 172.946 648.542 172.039 644.673 170.226C640.864 168.412 637.841 165.752 635.604 162.246C633.428 158.679 632.34 154.356 632.34 149.278C632.34 143.595 633.7 138.154 636.421 132.955C639.201 127.756 643.101 123.554 648.119 120.35C653.197 117.146 659.001 115.544 665.53 115.544C672.361 115.544 677.56 117.176 681.127 120.441C684.694 123.645 686.477 128.24 686.477 134.225C686.477 136.461 686.266 138.668 685.843 140.844L685.389 143.111H647.847C648.209 146.981 649.811 149.882 652.653 151.817C655.494 153.752 659.091 154.719 663.444 154.719C667.071 154.719 670.789 154.084 674.598 152.815C678.467 151.545 681.943 149.822 685.026 147.646L680.764 166.417C677.137 168.533 673.328 170.165 669.338 171.314C665.409 172.402 661.54 172.946 657.731 172.946ZM668.069 135.948C668.25 135.041 668.341 134.164 668.341 133.318C668.341 131.202 667.767 129.479 666.618 128.149C665.469 126.819 663.746 126.154 661.449 126.154C658.487 126.154 655.887 127.091 653.65 128.965C651.474 130.779 649.842 133.106 648.753 135.948H668.069Z" fill="#051014"/>
<path d="M603.294 127.423H594.679L597.218 116.45H605.833L608.826 103.755H626.69L623.788 116.45H638.298L635.758 127.423H621.249L611.002 171.948H593.047L603.294 127.423Z" fill="#051014"/>
<path d="M549.056 172.946C544.703 172.946 541.046 171.979 538.084 170.044C535.182 168.049 533.005 165.389 531.554 162.064C530.164 158.739 529.469 155.021 529.469 150.91C529.469 145.348 530.708 139.847 533.187 134.406C535.665 128.905 539.202 124.401 543.797 120.894C548.391 117.327 553.651 115.544 559.575 115.544C563.384 115.544 566.558 116.451 569.097 118.264C571.697 120.078 573.51 122.587 574.538 125.791L576.714 116.451H594.488L581.702 171.949H565.107L567.374 162.155C565.137 165.782 562.417 168.503 559.213 170.316C556.069 172.07 552.684 172.946 549.056 172.946ZM548.331 147.555C548.331 150.759 549.238 153.419 551.051 155.535C552.865 157.651 555.555 158.709 559.122 158.709C562.568 158.709 565.591 157.802 568.19 155.988C570.85 154.175 572.876 151.877 574.266 149.097C575.717 146.255 576.442 143.384 576.442 140.482C576.442 137.217 575.475 134.527 573.541 132.411C571.606 130.235 568.795 129.146 565.107 129.146C561.782 129.146 558.85 130.083 556.311 131.958C553.772 133.771 551.807 136.099 550.416 138.94C549.026 141.781 548.331 144.653 548.331 147.555Z" fill="#051014"/>
<path d="M500.692 127.423H492.078L494.617 116.45H503.232L506.224 103.755H524.089L521.187 116.45H535.696L533.157 127.423H518.648L508.4 171.948H490.445L500.692 127.423Z" fill="#051014"/>
<path d="M476.309 100.127H494.264L477.76 171.948H459.805L476.309 100.127Z" fill="#051014"/>
<path d="M414.527 172.947C409.933 172.947 406.517 171.768 404.28 169.41C402.104 166.992 401.016 163.908 401.016 160.16C401.016 158.528 401.197 156.896 401.56 155.263L410.537 116.451H428.402L420.512 150.639C420.331 151.424 420.24 152.271 420.24 153.178C420.24 156.745 421.994 158.528 425.5 158.528C427.435 158.528 429.369 157.923 431.304 156.714C433.299 155.445 435.112 153.571 436.745 151.092C438.377 148.613 439.586 145.591 440.372 142.024L446.266 116.451H464.131L451.345 171.949H434.75L438.558 155.445C436.019 161.067 432.543 165.39 428.13 168.412C423.777 171.435 419.243 172.947 414.527 172.947Z" fill="#051014"/>
<path d="M368.529 172.946C363.027 172.946 357.889 172.221 353.113 170.77C348.397 169.319 344.528 167.173 341.505 164.331C338.543 161.429 336.941 157.983 336.699 153.993H359.189C359.309 157.258 360.791 159.767 363.632 161.52C366.534 163.213 369.859 164.059 373.607 164.059C376.509 164.059 378.927 163.545 380.862 162.518C382.857 161.429 383.854 159.948 383.854 158.074C383.854 156.321 382.978 154.961 381.224 153.993C379.532 153.026 377.113 152.331 373.97 151.908L367.169 150.82C362.876 150.275 359.189 149.55 356.105 148.643C353.022 147.736 350.392 146.195 348.216 144.018C346.1 141.842 345.042 138.849 345.042 135.041C345.042 130.869 346.281 127.333 348.76 124.431C351.299 121.469 354.594 119.262 358.644 117.811C362.755 116.3 367.169 115.544 371.884 115.544C376.6 115.544 380.952 116.3 384.942 117.811C388.993 119.262 392.227 121.438 394.645 124.34C397.124 127.182 398.394 130.567 398.454 134.497H376.418C376.418 131.413 375.391 129.086 373.335 127.514C371.28 125.942 368.861 125.156 366.08 125.156C363.844 125.156 361.939 125.67 360.367 126.698C358.856 127.665 358.1 128.965 358.1 130.597C358.1 132.592 359.189 134.073 361.365 135.041C363.541 135.948 366.745 136.703 370.977 137.308L378.051 138.487C384.096 139.333 388.872 140.814 392.378 142.93C395.885 145.046 397.638 148.552 397.638 153.449C397.638 157.56 396.368 161.097 393.829 164.059C391.29 166.961 387.814 169.168 383.401 170.679C378.988 172.19 374.03 172.946 368.529 172.946Z" fill="#051014"/>
<path d="M307.629 172.946C302.793 172.946 298.44 172.039 294.571 170.226C290.762 168.412 287.74 165.752 285.503 162.246C283.326 158.679 282.238 154.356 282.238 149.278C282.238 143.595 283.599 138.154 286.319 132.955C289.1 127.756 292.999 123.554 298.017 120.35C303.095 117.146 308.899 115.544 315.428 115.544C322.26 115.544 327.459 117.176 331.026 120.441C334.592 123.645 336.376 128.24 336.376 134.225C336.376 136.461 336.164 138.668 335.741 140.844L335.288 143.111H297.745C298.108 146.981 299.71 149.882 302.551 151.817C305.393 153.752 308.99 154.719 313.342 154.719C316.97 154.719 320.688 154.084 324.496 152.815C328.366 151.545 331.842 149.822 334.925 147.646L330.663 166.417C327.036 168.533 323.227 170.165 319.237 171.314C315.307 172.402 311.438 172.946 307.629 172.946ZM317.967 135.948C318.149 135.041 318.239 134.164 318.239 133.318C318.239 131.202 317.665 129.479 316.516 128.149C315.368 126.819 313.645 126.154 311.347 126.154C308.385 126.154 305.786 127.091 303.549 128.965C301.372 130.779 299.74 133.106 298.652 135.948H317.967Z" fill="#051014"/>
<path d="M245.615 116.451H262.21L258.039 134.316C260.517 127.847 263.722 123.131 267.651 120.169C271.581 117.207 275.782 115.726 280.256 115.726C282.432 115.726 284.518 116.149 286.513 116.995L282.523 134.134C281.435 133.53 280.135 133.046 278.624 132.683C277.112 132.321 275.571 132.139 273.999 132.139C270.916 132.139 267.923 132.865 265.021 134.316C262.18 135.706 259.852 137.61 258.039 140.029L250.693 171.949H232.738L245.615 116.451Z" fill="#051014"/>
<path d="M175.277 117.539H187.338V134.315C188.729 128.451 191.147 124.068 194.593 121.166C198.039 118.264 201.968 116.813 206.382 116.813C209.283 116.813 211.883 117.539 214.18 118.99V131.776C212.79 130.809 211.218 130.083 209.465 129.6C207.712 129.056 205.928 128.784 204.114 128.784C200.669 128.784 197.495 129.69 194.593 131.504C191.751 133.318 189.666 135.857 188.336 139.121V171.949H175.277V117.539Z" fill="#051014"/>
<path d="M129.993 172.946C125.217 172.946 121.408 171.797 118.567 169.5C115.725 167.142 114.305 163.847 114.305 159.615C114.305 155.988 115.272 153.147 117.207 151.091C119.141 148.975 121.62 147.464 124.643 146.557C127.665 145.65 131.413 144.925 135.887 144.381L146.316 142.93C150.427 142.446 153.631 141.509 155.928 140.119C158.225 138.668 159.374 136.491 159.374 133.59C159.374 130.869 158.256 128.753 156.019 127.242C153.842 125.73 151.182 124.975 148.039 124.975C145.56 124.975 143.172 125.458 140.875 126.426C138.577 127.393 136.673 128.844 135.162 130.778C133.65 132.713 132.864 135.04 132.804 137.761H118.93C119.05 133.65 120.32 129.992 122.738 126.788C125.156 123.584 128.361 121.106 132.351 119.352C136.401 117.539 140.814 116.632 145.59 116.632C151.878 116.632 157.046 118.264 161.097 121.529C165.208 124.733 167.263 129.479 167.263 135.766V171.948H155.112V156.895C154.024 159.918 152.24 162.668 149.762 165.147C147.283 167.565 144.321 169.47 140.875 170.86C137.429 172.251 133.801 172.946 129.993 172.946ZM127.635 157.258C127.635 159.253 128.421 160.825 129.993 161.973C131.625 163.061 133.681 163.605 136.159 163.605C138.88 163.605 141.6 162.971 144.321 161.701C147.102 160.371 149.429 158.406 151.303 155.807C153.177 153.207 154.205 150.124 154.386 146.557C152.15 147.464 149.671 148.129 146.95 148.552L139.061 149.822C136.341 150.245 134.194 150.698 132.623 151.182C131.111 151.605 129.902 152.3 128.995 153.268C128.088 154.235 127.635 155.565 127.635 157.258Z" fill="#051014"/>
<path d="M71.9225 172.946C67.1465 172.946 63.3379 171.797 60.4965 169.5C57.6551 167.142 56.2344 163.847 56.2344 159.615C56.2344 155.988 57.2017 153.147 59.1362 151.091C61.0708 148.975 63.5494 147.464 66.5722 146.557C69.595 145.65 73.3432 144.925 77.8169 144.381L88.2454 142.93C92.3563 142.446 95.5605 141.509 97.8577 140.119C100.155 138.668 101.304 136.491 101.304 133.59C101.304 130.869 100.185 128.753 97.9484 127.242C95.772 125.73 93.112 124.975 89.9684 124.975C87.4897 124.975 85.1017 125.458 82.8044 126.426C80.5071 127.393 78.6028 128.844 77.0914 130.778C75.58 132.713 74.7941 135.04 74.7337 137.761H60.8592C60.9801 133.65 62.2497 129.992 64.6679 126.788C67.0861 123.584 70.2902 121.106 74.2802 119.352C78.3307 117.539 82.744 116.632 87.5199 116.632C93.8072 116.632 98.9762 118.264 103.027 121.529C107.138 124.733 109.193 129.479 109.193 135.766V171.948H97.0416V156.895C95.9534 159.918 94.17 162.668 91.6913 165.147C89.2127 167.565 86.2504 169.47 82.8044 170.86C79.3585 172.251 75.7312 172.946 71.9225 172.946ZM69.5647 157.258C69.5647 159.253 70.3506 160.825 71.9225 161.973C73.5548 163.061 75.6102 163.605 78.0889 163.605C80.8094 163.605 83.5299 162.971 86.2504 161.701C89.0313 160.371 91.3588 158.406 93.2329 155.807C95.107 153.207 96.1348 150.124 96.3161 146.557C94.0793 147.464 91.6006 148.129 88.8802 148.552L80.9908 149.822C78.2703 150.245 76.1241 150.698 74.5523 151.182C73.0409 151.605 71.8318 152.3 70.925 153.268C70.0181 154.235 69.5647 155.565 69.5647 157.258Z" fill="#051014"/>
<path d="M0 117.539H12.0608V135.04C13.2095 131.232 14.9929 127.937 17.4111 125.156C19.8897 122.375 22.6707 120.259 25.7539 118.808C28.8371 117.357 31.9506 116.632 35.0942 116.632C39.6888 116.632 43.4975 118.053 46.5202 120.894C49.6035 123.735 51.1451 127.816 51.1451 133.136V171.948H38.1774V137.217C38.1774 133.952 37.3311 131.443 35.6383 129.69C34.006 127.937 31.8296 127.06 29.1092 127.06C26.5096 127.06 23.9705 127.876 21.4918 129.509C19.0131 131.141 16.9879 133.469 15.4161 136.491C13.8442 139.514 13.0583 142.99 13.0583 146.92V171.948H0L0 117.539Z" fill="#051014"/>
</svg>
