<svg width="750" height="173" viewBox="0 0 750 173" fill="none" xmlns="http://www.w3.org/2000/svg">
<path d="M178.042 30.3703H168.43V21.8461H178.042V8.60645H191.01V21.8461H208.511V30.3703H191.01V76.2558H178.042V30.3703Z" fill="#051014"/>
<path d="M145.053 77.2534C139.37 77.2534 134.383 75.9839 130.09 73.4447C125.859 70.9056 122.594 67.4597 120.297 63.1069C118.06 58.7542 116.941 53.948 116.941 48.6884C116.941 43.9124 117.969 39.4085 120.025 35.1766C122.08 30.9448 125.103 27.5291 129.093 24.9295C133.143 22.2695 138.04 20.9395 143.784 20.9395C151.038 20.9395 156.54 23.0856 160.288 27.3779C164.096 31.6702 166.001 37.9576 166.001 46.2399V48.7791H127.914C128.7 53.3132 130.755 57.0312 134.08 59.933C137.405 62.7744 141.758 64.1951 147.139 64.1951C150.524 64.1951 153.94 63.5906 157.386 62.3815C160.832 61.1119 164.006 59.3285 166.908 57.0312V69.8174C163.583 72.2961 160.046 74.1702 156.298 75.4398C152.61 76.6489 148.862 77.2534 145.053 77.2534ZM152.761 42.4313C152.761 37.8971 151.854 34.4814 150.041 32.1841C148.227 29.8868 145.567 28.7382 142.061 28.7382C138.07 28.7382 134.836 30.038 132.357 32.6375C129.879 35.2371 128.367 38.5017 127.823 42.4313H152.761Z" fill="#051014"/>
<path d="M58.0938 61.5656L100.171 22.8441H62.8093V12.7783H112.685V27.4689L70.88 66.1904H115.677V76.2562H58.0938V61.5656Z" fill="#051014"/>
<path d="M481.552 75.2671C476.776 75.2671 472.211 74.5719 467.859 73.1814C463.506 71.7909 459.879 69.7355 456.977 67.015C454.075 64.234 452.382 60.909 451.898 57.0399H468.312C468.796 60.6067 470.67 63.3574 473.934 65.292C477.199 67.2266 480.826 68.1938 484.816 68.1938C487.96 68.1938 490.56 67.5591 492.615 66.2895C494.731 64.9595 495.789 63.2063 495.789 61.0299C495.789 58.8535 494.791 57.2212 492.796 56.133C490.801 54.9844 487.899 54.0776 484.091 53.4126L475.929 52.0523C469.582 51.0246 464.564 49.3621 460.876 47.0648C457.188 44.7675 455.344 40.9588 455.344 35.6387C455.344 32.1323 456.342 29.1096 458.337 26.5705C460.332 24.0314 463.022 22.127 466.408 20.8575C469.793 19.5879 473.541 18.9531 477.652 18.9531C481.884 18.9531 485.844 19.6484 489.532 21.0388C493.28 22.3688 496.363 24.3639 498.781 27.0239C501.2 29.6839 502.56 32.8276 502.862 36.4549H486.993C486.932 33.1903 485.602 30.6814 483.003 28.9282C480.464 27.175 477.562 26.2984 474.297 26.2984C471.697 26.2984 469.491 26.903 467.677 28.1121C465.924 29.2607 465.047 30.8326 465.047 32.8276C465.047 35.2458 466.105 36.999 468.221 38.0872C470.337 39.1149 473.511 39.9915 477.743 40.717L486.539 42.2586C492.706 43.2259 497.542 44.8582 501.048 47.1555C504.615 49.3923 506.399 52.9894 506.399 57.9467C506.399 61.6949 505.28 64.8688 503.044 67.4684C500.807 70.068 497.814 72.0327 494.066 73.3628C490.318 74.6323 486.146 75.2671 481.552 75.2671Z" fill="#F34213"/>
<path d="M413.504 47.4274V74.2695H400.445V2.17676H413.504V43.1653L436.265 19.8599H452.769L426.834 44.8883L454.855 74.2695H438.079L413.504 47.4274Z" fill="#F34213"/>
<path d="M372.201 75.2671C366.519 75.2671 361.531 73.9975 357.239 71.4584C353.007 68.9193 349.742 65.4734 347.445 61.1206C345.208 56.7678 344.09 51.9616 344.09 46.702C344.09 41.9261 345.118 37.4222 347.173 33.1903C349.229 28.9585 352.282 25.5427 356.332 22.9432C360.383 20.2831 365.279 18.9531 371.023 18.9531C378.519 18.9531 384.262 21.0086 388.252 25.1195C392.303 29.2305 394.328 34.7621 394.328 41.7145H380.544C380.544 31.7394 376.796 26.7518 369.3 26.7518C366.277 26.7518 363.677 27.5075 361.501 29.0189C359.325 30.5303 357.662 32.5555 356.513 35.0947C355.425 37.5733 354.881 40.2636 354.881 43.1654C354.881 46.5509 355.637 49.6946 357.148 52.5964C358.66 55.4378 360.866 57.7351 363.768 59.4883C366.73 61.181 370.237 62.0274 374.287 62.0274C377.733 62.0274 381.149 61.4229 384.534 60.2138C387.98 59.0047 391.154 57.191 394.056 54.7728V67.8311C390.731 70.3098 387.194 72.1839 383.446 73.4534C379.758 74.6625 376.01 75.2671 372.201 75.2671Z" fill="#F34213"/>
<path d="M325.306 19.8595H338.364V74.2692H325.306V19.8595ZM325.215 0L338.455 0V14.6906H325.215V0Z" fill="#F34213"/>
<path d="M304.25 2.17676H317.308V74.2695H304.25V2.17676Z" fill="#F34213"/>
<path d="M276.006 75.2671C270.323 75.2671 265.336 73.9975 261.044 71.4584C256.812 68.9193 253.547 65.4734 251.25 61.1206C249.013 56.7678 247.895 51.9616 247.895 46.702C247.895 41.9261 248.922 37.4222 250.978 33.1903C253.033 28.9585 256.086 25.5427 260.137 22.9432C264.187 20.2831 269.084 18.9531 274.827 18.9531C282.324 18.9531 288.067 21.0086 292.057 25.1195C296.108 29.2305 298.133 34.7621 298.133 41.7145H284.349C284.349 31.7394 280.601 26.7518 273.104 26.7518C270.082 26.7518 267.482 27.5075 265.306 29.0189C263.129 30.5303 261.467 32.5555 260.318 35.0947C259.23 37.5733 258.686 40.2636 258.686 43.1654C258.686 46.5509 259.441 49.6946 260.953 52.5964C262.464 55.4378 264.671 57.7351 267.573 59.4883C270.535 61.181 274.041 62.0274 278.092 62.0274C281.538 62.0274 284.954 61.4229 288.339 60.2138C291.785 59.0047 294.959 57.191 297.861 54.7728V67.8311C294.536 70.3098 290.999 72.1839 287.251 73.4534C283.563 74.6625 279.815 75.2671 276.006 75.2671Z" fill="#F34213"/>
<path fill-rule="evenodd" clip-rule="evenodd" d="M220.578 56.6525C220.371 55.3871 221.229 54.1934 222.494 53.9862L233.83 52.1306C235.095 51.9234 236.289 52.7813 236.496 54.0467C236.703 55.312 235.845 56.5058 234.58 56.7129L223.244 58.5686C221.979 58.7757 220.785 57.9179 220.578 56.6525Z" fill="#F5C3C1"/>
<path fill-rule="evenodd" clip-rule="evenodd" d="M230.003 74.5971C228.961 73.8488 228.724 72.3981 229.472 71.3569L236.175 62.0295C236.923 60.9883 238.374 60.7508 239.415 61.499C240.457 62.2473 240.694 63.698 239.946 64.7392L233.243 74.0666C232.494 75.1078 231.044 75.3453 230.003 74.5971Z" fill="#F5C3C1"/>
<path fill-rule="evenodd" clip-rule="evenodd" d="M223.602 35.4898C224.35 34.4486 225.801 34.2111 226.842 34.9594L236.17 41.6624C237.211 42.4107 237.448 43.8614 236.7 44.9026C235.952 45.9439 234.501 46.1813 233.46 45.4331L224.133 38.73C223.091 37.9817 222.854 36.531 223.602 35.4898Z" fill="#F5C3C1"/>
<path fill-rule="evenodd" clip-rule="evenodd" d="M531.976 23.8279C532.145 25.1683 531.195 26.3914 529.854 26.5597L517.847 28.068C516.507 28.2364 515.284 27.2863 515.116 25.9459C514.947 24.6056 515.897 23.3825 517.238 23.2141L529.245 21.7059C530.585 21.5375 531.808 22.4876 531.976 23.8279Z" fill="#F5C3C1"/>
<path fill-rule="evenodd" clip-rule="evenodd" d="M522.756 4.56392C523.823 5.39264 524.016 6.92929 523.187 7.99612L515.763 17.5528C514.935 18.6196 513.398 18.8127 512.331 17.984C511.264 17.1552 511.071 15.6186 511.9 14.5517L519.324 4.99506C520.152 3.92822 521.689 3.7352 522.756 4.56392Z" fill="#F5C3C1"/>
<path fill-rule="evenodd" clip-rule="evenodd" d="M527.958 45.9902C527.129 47.057 525.592 47.2501 524.525 46.4213L514.969 38.9976C513.902 38.1689 513.709 36.6323 514.538 35.5654C515.366 34.4986 516.903 34.3056 517.97 35.1343L527.526 42.558C528.593 43.3867 528.786 44.9234 527.958 45.9902Z" fill="#F5C3C1"/>
<path d="M607.52 21.8463H619.58V38.804C621.152 33.363 623.873 29.0404 627.742 25.8363C631.671 22.5717 635.933 20.9395 640.528 20.9395C644.82 20.9395 648.357 22.2997 651.138 25.0202C653.979 27.6802 655.46 31.5191 655.581 36.5369C657.335 31.7609 660.025 27.9825 663.652 25.2015C667.34 22.3601 671.33 20.9395 675.622 20.9395C680.035 20.9395 683.633 22.3601 686.414 25.2015C689.255 28.0429 690.676 32.0934 690.676 37.353V76.2559H677.617V41.1617C677.617 38.018 676.892 35.5998 675.441 33.9071C673.99 32.2143 672.055 31.368 669.637 31.368C667.279 31.368 665.012 32.2143 662.836 33.9071C660.66 35.5394 658.906 37.8064 657.576 40.7083C656.246 43.6101 655.581 46.8445 655.581 50.4113V76.2559H642.614V41.1617C642.614 38.0785 641.858 35.6905 640.347 33.9978C638.835 32.2446 636.901 31.368 634.543 31.368C632.185 31.368 629.918 32.2143 627.742 33.9071C625.626 35.5394 623.903 37.8064 622.573 40.7083C621.243 43.6101 620.578 46.8445 620.578 50.4113V76.2559H607.52V21.8463Z" fill="#051014"/>
<path d="M572.299 77.2534C566.253 77.2534 561.024 75.9234 556.611 73.2634C552.258 70.6034 548.963 67.1574 546.726 62.9256C544.49 58.6332 543.371 54.0689 543.371 49.2325C543.371 44.3961 544.49 39.8317 546.726 35.5394C549.024 31.1866 552.409 27.6802 556.883 25.0202C561.357 22.2997 566.677 20.9395 572.843 20.9395C578.888 20.9395 584.088 22.2695 588.44 24.9295C592.854 27.5291 596.179 30.975 598.416 35.2673C600.652 39.5596 601.771 44.124 601.771 48.9604C601.771 53.8573 600.622 58.4821 598.325 62.8349C596.088 67.1272 592.733 70.6034 588.259 73.2634C583.785 75.9234 578.465 77.2534 572.299 77.2534ZM556.701 48.3256C556.701 51.7111 557.336 54.8548 558.606 57.7566C559.875 60.598 561.749 62.8953 564.228 64.6485C566.767 66.3413 569.76 67.1876 573.206 67.1876C577.982 67.1876 581.7 65.5251 584.36 62.2001C587.08 58.8751 588.44 54.7339 588.44 49.7766C588.44 46.3911 587.806 43.2776 586.536 40.4362C585.267 37.5948 583.362 35.3278 580.823 33.635C578.344 31.8818 575.382 31.0052 571.936 31.0052C568.732 31.0052 565.981 31.7912 563.684 33.363C561.387 34.8744 559.634 36.9601 558.424 39.6201C557.276 42.2197 556.701 45.1215 556.701 48.3256Z" fill="#051014"/>
<path d="M698.22 116.451H714.815L710.915 133.227C712.608 129.418 714.845 126.184 717.626 123.524C720.407 120.864 723.399 118.869 726.604 117.539C729.808 116.209 732.921 115.544 735.944 115.544C740.659 115.544 744.166 116.783 746.463 119.262C748.821 121.68 750 124.794 750 128.602C750 130.053 749.818 131.565 749.456 133.136L740.569 171.949H722.614L730.503 137.761C730.684 137.036 730.775 136.341 730.775 135.676C730.775 133.983 730.291 132.592 729.324 131.504C728.357 130.416 726.906 129.872 724.971 129.872C723.037 129.872 721.011 130.507 718.896 131.776C716.78 132.985 714.845 134.829 713.092 137.308C711.339 139.786 710.039 142.809 709.192 146.376L703.298 171.949H685.434L698.22 116.451Z" fill="#051014"/>
<path d="M657.731 172.946C652.895 172.946 648.542 172.039 644.673 170.226C640.864 168.412 637.841 165.752 635.604 162.246C633.428 158.679 632.34 154.356 632.34 149.278C632.34 143.595 633.7 138.154 636.421 132.955C639.201 127.756 643.101 123.554 648.119 120.35C653.197 117.146 659.001 115.544 665.53 115.544C672.361 115.544 677.56 117.176 681.127 120.441C684.694 123.645 686.477 128.24 686.477 134.225C686.477 136.461 686.266 138.668 685.843 140.844L685.389 143.111H647.847C648.209 146.981 649.811 149.882 652.653 151.817C655.494 153.752 659.091 154.719 663.444 154.719C667.071 154.719 670.789 154.084 674.598 152.815C678.467 151.545 681.943 149.822 685.026 147.646L680.764 166.417C677.137 168.533 673.328 170.165 669.338 171.314C665.409 172.402 661.54 172.946 657.731 172.946ZM668.069 135.948C668.25 135.041 668.341 134.164 668.341 133.318C668.341 131.202 667.767 129.479 666.618 128.149C665.469 126.819 663.746 126.154 661.449 126.154C658.487 126.154 655.887 127.091 653.65 128.965C651.474 130.779 649.842 133.106 648.753 135.948H668.069Z" fill="#051014"/>
<path d="M603.294 127.423H594.679L597.218 116.45H605.833L608.826 103.755H626.69L623.788 116.45H638.298L635.758 127.423H621.249L611.002 171.948H593.047L603.294 127.423Z" fill="#051014"/>
<path d="M549.056 172.946C544.703 172.946 541.046 171.979 538.084 170.044C535.182 168.049 533.005 165.389 531.554 162.064C530.164 158.739 529.469 155.021 529.469 150.91C529.469 145.348 530.708 139.847 533.187 134.406C535.665 128.905 539.202 124.401 543.797 120.894C548.391 117.327 553.651 115.544 559.575 115.544C563.384 115.544 566.558 116.451 569.097 118.264C571.697 120.078 573.51 122.587 574.538 125.791L576.714 116.451H594.488L581.702 171.949H565.107L567.374 162.155C565.137 165.782 562.417 168.503 559.213 170.316C556.069 172.07 552.684 172.946 549.056 172.946ZM548.331 147.555C548.331 150.759 549.238 153.419 551.051 155.535C552.865 157.651 555.555 158.709 559.122 158.709C562.568 158.709 565.591 157.802 568.19 155.988C570.85 154.175 572.876 151.877 574.266 149.097C575.717 146.255 576.442 143.384 576.442 140.482C576.442 137.217 575.475 134.527 573.541 132.411C571.606 130.235 568.795 129.146 565.107 129.146C561.782 129.146 558.85 130.083 556.311 131.958C553.772 133.771 551.807 136.099 550.416 138.94C549.026 141.781 548.331 144.653 548.331 147.555Z" fill="#051014"/>
<path d="M500.692 127.423H492.078L494.617 116.45H503.232L506.224 103.755H524.089L521.187 116.45H535.696L533.157 127.423H518.648L508.4 171.948H490.445L500.692 127.423Z" fill="#051014"/>
<path d="M476.309 100.127H494.264L477.76 171.948H459.805L476.309 100.127Z" fill="#051014"/>
<path d="M414.527 172.947C409.933 172.947 406.517 171.768 404.28 169.41C402.104 166.992 401.016 163.908 401.016 160.16C401.016 158.528 401.197 156.896 401.56 155.263L410.537 116.451H428.402L420.512 150.639C420.331 151.424 420.24 152.271 420.24 153.178C420.24 156.745 421.994 158.528 425.5 158.528C427.435 158.528 429.369 157.923 431.304 156.714C433.299 155.445 435.112 153.571 436.745 151.092C438.377 148.613 439.586 145.591 440.372 142.024L446.266 116.451H464.131L451.345 171.949H434.75L438.558 155.445C436.019 161.067 432.543 165.39 428.13 168.412C423.777 171.435 419.243 172.947 414.527 172.947Z" fill="#051014"/>
<path d="M368.529 172.946C363.027 172.946 357.889 172.221 353.113 170.77C348.397 169.319 344.528 167.173 341.505 164.331C338.543 161.429 336.941 157.983 336.699 153.993H359.189C359.309 157.258 360.791 159.767 363.632 161.52C366.534 163.213 369.859 164.059 373.607 164.059C376.509 164.059 378.927 163.545 380.862 162.518C382.857 161.429 383.854 159.948 383.854 158.074C383.854 156.321 382.978 154.961 381.224 153.993C379.532 153.026 377.113 152.331 373.97 151.908L367.169 150.82C362.876 150.275 359.189 149.55 356.105 148.643C353.022 147.736 350.392 146.195 348.216 144.018C346.1 141.842 345.042 138.849 345.042 135.041C345.042 130.869 346.281 127.333 348.76 124.431C351.299 121.469 354.594 119.262 358.644 117.811C362.755 116.3 367.169 115.544 371.884 115.544C376.6 115.544 380.952 116.3 384.942 117.811C388.993 119.262 392.227 121.438 394.645 124.34C397.124 127.182 398.394 130.567 398.454 134.497H376.418C376.418 131.413 375.391 129.086 373.335 127.514C371.28 125.942 368.861 125.156 366.08 125.156C363.844 125.156 361.939 125.67 360.367 126.698C358.856 127.665 358.1 128.965 358.1 130.597C358.1 132.592 359.189 134.073 361.365 135.041C363.541 135.948 366.745 136.703 370.977 137.308L378.051 138.487C384.096 139.333 388.872 140.814 392.378 142.93C395.885 145.046 397.638 148.552 397.638 153.449C397.638 157.56 396.368 161.097 393.829 164.059C391.29 166.961 387.814 169.168 383.401 170.679C378.988 172.19 374.03 172.946 368.529 172.946Z" fill="#051014"/>
<path d="M307.629 172.946C302.793 172.946 298.44 172.039 294.571 170.226C290.762 168.412 287.74 165.752 285.503 162.246C283.326 158.679 282.238 154.356 282.238 149.278C282.238 143.595 283.599 138.154 286.319 132.955C289.1 127.756 292.999 123.554 298.017 120.35C303.095 117.146 308.899 115.544 315.428 115.544C322.26 115.544 327.459 117.176 331.026 120.441C334.592 123.645 336.376 128.24 336.376 134.225C336.376 136.461 336.164 138.668 335.741 140.844L335.288 143.111H297.745C298.108 146.981 299.71 149.882 302.551 151.817C305.393 153.752 308.99 154.719 313.342 154.719C316.97 154.719 320.688 154.084 324.496 152.815C328.366 151.545 331.842 149.822 334.925 147.646L330.663 166.417C327.036 168.533 323.227 170.165 319.237 171.314C315.307 172.402 311.438 172.946 307.629 172.946ZM317.967 135.948C318.149 135.041 318.239 134.164 318.239 133.318C318.239 131.202 317.665 129.479 316.516 128.149C315.368 126.819 313.645 126.154 311.347 126.154C308.385 126.154 305.786 127.091 303.549 128.965C301.372 130.779 299.74 133.106 298.652 135.948H317.967Z" fill="#051014"/>
<path d="M245.615 116.451H262.21L258.039 134.316C260.517 127.847 263.722 123.131 267.651 120.169C271.581 117.207 275.782 115.726 280.256 115.726C282.432 115.726 284.518 116.149 286.513 116.995L282.523 134.134C281.435 133.53 280.135 133.046 278.624 132.683C277.112 132.321 275.571 132.139 273.999 132.139C270.916 132.139 267.923 132.865 265.021 134.316C262.18 135.706 259.852 137.61 258.039 140.029L250.693 171.949H232.738L245.615 116.451Z" fill="#051014"/>
<path d="M175.277 117.539H187.338V134.315C188.729 128.451 191.147 124.068 194.593 121.166C198.039 118.264 201.968 116.813 206.382 116.813C209.283 116.813 211.883 117.539 214.18 118.99V131.776C212.79 130.809 211.218 130.083 209.465 129.6C207.712 129.056 205.928 128.784 204.114 128.784C200.669 128.784 197.495 129.69 194.593 131.504C191.751 133.318 189.666 135.857 188.336 139.121V171.949H175.277V117.539Z" fill="#051014"/>
<path d="M129.993 172.946C125.217 172.946 121.408 171.797 118.567 169.5C115.725 167.142 114.305 163.847 114.305 159.615C114.305 155.988 115.272 153.147 117.207 151.091C119.141 148.975 121.62 147.464 124.643 146.557C127.665 145.65 131.413 144.925 135.887 144.381L146.316 142.93C150.427 142.446 153.631 141.509 155.928 140.119C158.225 138.668 159.374 136.491 159.374 133.59C159.374 130.869 158.256 128.753 156.019 127.242C153.842 125.73 151.182 124.975 148.039 124.975C145.56 124.975 143.172 125.458 140.875 126.426C138.577 127.393 136.673 128.844 135.162 130.778C133.65 132.713 132.864 135.04 132.804 137.761H118.93C119.05 133.65 120.32 129.992 122.738 126.788C125.156 123.584 128.361 121.106 132.351 119.352C136.401 117.539 140.814 116.632 145.59 116.632C151.878 116.632 157.046 118.264 161.097 121.529C165.208 124.733 167.263 129.479 167.263 135.766V171.948H155.112V156.895C154.024 159.918 152.24 162.668 149.762 165.147C147.283 167.565 144.321 169.47 140.875 170.86C137.429 172.251 133.801 172.946 129.993 172.946ZM127.635 157.258C127.635 159.253 128.421 160.825 129.993 161.973C131.625 163.061 133.681 163.605 136.159 163.605C138.88 163.605 141.6 162.971 144.321 161.701C147.102 160.371 149.429 158.406 151.303 155.807C153.177 153.207 154.205 150.124 154.386 146.557C152.15 147.464 149.671 148.129 146.95 148.552L139.061 149.822C136.341 150.245 134.194 150.698 132.623 151.182C131.111 151.605 129.902 152.3 128.995 153.268C128.088 154.235 127.635 155.565 127.635 157.258Z" fill="#051014"/>
<path d="M71.9225 172.946C67.1465 172.946 63.3379 171.797 60.4965 169.5C57.6551 167.142 56.2344 163.847 56.2344 159.615C56.2344 155.988 57.2017 153.147 59.1362 151.091C61.0708 148.975 63.5494 147.464 66.5722 146.557C69.595 145.65 73.3432 144.925 77.8169 144.381L88.2454 142.93C92.3563 142.446 95.5605 141.509 97.8577 140.119C100.155 138.668 101.304 136.491 101.304 133.59C101.304 130.869 100.185 128.753 97.9484 127.242C95.772 125.73 93.112 124.975 89.9684 124.975C87.4897 124.975 85.1017 125.458 82.8044 126.426C80.5071 127.393 78.6028 128.844 77.0914 130.778C75.58 132.713 74.7941 135.04 74.7337 137.761H60.8592C60.9801 133.65 62.2497 129.992 64.6679 126.788C67.0861 123.584 70.2902 121.106 74.2802 119.352C78.3307 117.539 82.744 116.632 87.5199 116.632C93.8072 116.632 98.9762 118.264 103.027 121.529C107.138 124.733 109.193 129.479 109.193 135.766V171.948H97.0416V156.895C95.9534 159.918 94.17 162.668 91.6913 165.147C89.2127 167.565 86.2504 169.47 82.8044 170.86C79.3585 172.251 75.7312 172.946 71.9225 172.946ZM69.5647 157.258C69.5647 159.253 70.3506 160.825 71.9225 161.973C73.5548 163.061 75.6102 163.605 78.0889 163.605C80.8094 163.605 83.5299 162.971 86.2504 161.701C89.0313 160.371 91.3588 158.406 93.2329 155.807C95.107 153.207 96.1348 150.124 96.3161 146.557C94.0793 147.464 91.6006 148.129 88.8802 148.552L80.9908 149.822C78.2703 150.245 76.1241 150.698 74.5523 151.182C73.0409 151.605 71.8318 152.3 70.925 153.268C70.0181 154.235 69.5647 155.565 69.5647 157.258Z" fill="#051014"/>
<path d="M0 117.539H12.0608V135.04C13.2095 131.232 14.9929 127.937 17.4111 125.156C19.8897 122.375 22.6707 120.259 25.7539 118.808C28.8371 117.357 31.9506 116.632 35.0942 116.632C39.6888 116.632 43.4975 118.053 46.5202 120.894C49.6035 123.735 51.1451 127.816 51.1451 133.136V171.948H38.1774V137.217C38.1774 133.952 37.3311 131.443 35.6383 129.69C34.006 127.937 31.8296 127.06 29.1092 127.06C26.5096 127.06 23.9705 127.876 21.4918 129.509C19.0131 131.141 16.9879 133.469 15.4161 136.491C13.8442 139.514 13.0583 142.99 13.0583 146.92V171.948H0L0 117.539Z" fill="#051014"/>
</svg>
