<svg width="750" height="170" viewBox="0 0 750 170" fill="none" xmlns="http://www.w3.org/2000/svg">
<path d="M0 58.5127L39.9914 21.7103H4.4818V12.1434H51.8854V26.1059L12.1526 62.9083H54.7296V72.4753H0L0 58.5127Z" fill="#051014"/>
<path d="M82.65 73.4233C77.2488 73.4233 72.5085 72.2167 68.4289 69.8034C64.4068 67.3901 61.304 64.115 59.1205 59.9779C56.9945 55.8409 55.9316 51.2729 55.9316 46.274C55.9316 41.7347 56.9084 37.454 58.862 33.4319C60.8156 29.4098 63.6885 26.1634 67.4808 23.6926C71.3305 21.1644 75.9847 19.9003 81.4433 19.9003C88.3384 19.9003 93.5672 21.9401 97.1296 26.0197C100.75 30.0993 102.559 36.075 102.559 43.9469V46.3602H66.3603C67.1073 50.6696 69.0609 54.2033 72.2212 56.9613C75.3814 59.6619 79.5184 61.0122 84.6323 61.0122C87.85 61.0122 91.0964 60.4376 94.3716 59.2884C97.6467 58.0818 100.663 56.3868 103.421 54.2033V66.3559C100.261 68.7117 96.8998 70.4929 93.3373 71.6996C89.8323 72.8487 86.2699 73.4233 82.65 73.4233ZM89.976 40.327C89.976 36.0176 89.1141 32.7711 87.3903 30.5877C85.6666 28.4043 83.1384 27.3125 79.8057 27.3125C76.0135 27.3125 72.9394 28.5479 70.5836 31.0186C68.2278 33.4894 66.7913 36.5922 66.2742 40.327H89.976Z" fill="#051014"/>
<path d="M114.005 28.8639H104.869V20.7622H114.005V8.17871H126.33V20.7622H142.964V28.8639H126.33V72.4753H114.005V28.8639Z" fill="#051014"/>
<path d="M207.113 71.5364C201.712 71.5364 196.971 70.3297 192.892 67.9165C188.87 65.5032 185.767 62.228 183.584 58.091C181.458 53.9539 180.395 49.386 180.395 44.387C180.395 39.8478 181.371 35.5671 183.325 31.545C185.279 27.5228 188.18 24.2764 192.03 21.8057C195.88 19.2775 200.534 18.0134 205.992 18.0134C213.117 18.0134 218.576 19.967 222.368 23.8742C226.218 27.7814 228.143 33.0389 228.143 39.6467H215.042C215.042 30.1659 211.48 25.4256 204.355 25.4256C201.482 25.4256 199.011 26.1438 196.943 27.5803C194.874 29.0168 193.294 30.9416 192.202 33.3549C191.168 35.7107 190.651 38.2676 190.651 41.0257C190.651 44.2434 191.369 47.2312 192.806 49.9893C194.242 52.6898 196.339 54.8733 199.097 56.5396C201.913 58.1484 205.246 58.9529 209.095 58.9529C212.37 58.9529 215.617 58.3783 218.835 57.2291C222.11 56.0799 225.126 54.3561 227.884 52.0578V64.4689C224.724 66.8247 221.363 68.606 217.8 69.8126C214.295 70.9618 210.733 71.5364 207.113 71.5364Z" fill="#F34213"/>
<path d="M233.956 2.06853L246.367 2.06853V70.5883H233.956V2.06853Z" fill="#F34213"/>
<path d="M253.968 18.8753H266.379V70.5883H253.968V18.8753ZM253.882 0L266.465 0V13.9625H253.882V0Z" fill="#F34213"/>
<path d="M298.543 71.5364C293.142 71.5364 288.402 70.3297 284.322 67.9165C280.3 65.5032 277.197 62.228 275.014 58.091C272.888 53.9539 271.825 49.386 271.825 44.387C271.825 39.8478 272.802 35.5671 274.755 31.545C276.709 27.5228 279.611 24.2764 283.46 21.8057C287.31 19.2775 291.964 18.0134 297.423 18.0134C304.548 18.0134 310.006 19.967 313.799 23.8742C317.648 27.7814 319.573 33.0389 319.573 39.6467H306.473C306.473 30.1659 302.91 25.4256 295.785 25.4256C292.912 25.4256 290.442 26.1438 288.373 27.5803C286.305 29.0168 284.724 30.9416 283.633 33.3549C282.598 35.7107 282.081 38.2676 282.081 41.0257C282.081 44.2434 282.8 47.2312 284.236 49.9893C285.673 52.6898 287.77 54.8733 290.528 56.5396C293.343 58.1484 296.676 58.9529 300.526 58.9529C303.801 58.9529 307.047 58.3783 310.265 57.2291C313.54 56.0799 316.557 54.3561 319.315 52.0578V64.4689C316.155 66.8247 312.793 68.606 309.231 69.8126C305.726 70.9618 302.163 71.5364 298.543 71.5364Z" fill="#F34213"/>
<path d="M337.797 45.0765V70.5883H325.386V2.06853H337.797V41.0257L359.431 18.8753H375.117L350.467 42.6633L377.099 70.5883H361.155L337.797 45.0765Z" fill="#F34213"/>
<path d="M402.471 71.5364C397.932 71.5364 393.594 70.8756 389.457 69.554C385.32 68.2325 381.872 66.2789 379.114 63.6932C376.356 61.0501 374.747 57.8899 374.287 54.2125H389.888C390.347 57.6026 392.128 60.217 395.231 62.0557C398.334 63.8943 401.782 64.8137 405.574 64.8137C408.562 64.8137 411.032 64.2104 412.986 63.0037C414.997 61.7396 416.003 60.0733 416.003 58.0048C416.003 55.9363 415.055 54.3849 413.158 53.3506C411.262 52.2589 408.504 51.397 404.884 50.765L397.127 49.4721C391.094 48.4953 386.325 46.9152 382.82 44.7318C379.315 42.5483 377.563 38.9284 377.563 33.872C377.563 30.5394 378.511 27.6665 380.407 25.2532C382.303 22.8399 384.86 21.03 388.078 19.8233C391.295 18.6167 394.858 18.0134 398.765 18.0134C402.787 18.0134 406.551 18.6742 410.056 19.9957C413.618 21.2598 416.548 23.156 418.847 25.6841C421.145 28.2123 422.438 31.2002 422.725 34.6477H407.642C407.585 31.545 406.321 29.1604 403.85 27.4941C401.437 25.8278 398.679 24.9946 395.576 24.9946C393.105 24.9946 391.008 25.5692 389.284 26.7184C387.618 27.8101 386.785 29.3041 386.785 31.2002C386.785 33.4986 387.79 35.1649 389.801 36.1991C391.812 37.1759 394.829 38.0091 398.851 38.6986L407.211 40.1638C413.072 41.0831 417.669 42.6345 421.002 44.818C424.392 46.9439 426.087 50.3628 426.087 55.0744C426.087 58.6368 425.024 61.6534 422.898 64.1242C420.772 66.5949 417.928 68.4623 414.365 69.7264C410.803 70.9331 406.838 71.5364 402.471 71.5364Z" fill="#F34213"/>
<path fill-rule="evenodd" clip-rule="evenodd" d="M154.431 53.8436C154.234 52.641 155.049 51.5064 156.252 51.3095L167.025 49.5458C168.228 49.3489 169.362 50.1643 169.559 51.3669C169.756 52.5696 168.941 53.7042 167.738 53.901L156.965 55.6647C155.762 55.8616 154.628 55.0463 154.431 53.8436Z" fill="#F5C3C1"/>
<path fill-rule="evenodd" clip-rule="evenodd" d="M163.386 70.8991C162.396 70.1879 162.17 68.8091 162.881 67.8194L169.252 58.9543C169.964 57.9647 171.342 57.739 172.332 58.4502C173.322 59.1614 173.547 60.5402 172.836 61.5298L166.465 70.3949C165.754 71.3845 164.375 71.6102 163.386 70.8991Z" fill="#F5C3C1"/>
<path fill-rule="evenodd" clip-rule="evenodd" d="M157.31 33.7304C158.021 32.7407 159.4 32.515 160.39 33.2262L169.255 39.5971C170.244 40.3082 170.47 41.687 169.759 42.6767C169.048 43.6663 167.669 43.892 166.679 43.1808L157.814 36.81C156.824 36.0988 156.599 34.72 157.31 33.7304Z" fill="#F5C3C1"/>
<path fill-rule="evenodd" clip-rule="evenodd" d="M450.39 22.6455C450.55 23.9194 449.647 25.0819 448.373 25.2419L436.961 26.6754C435.687 26.8354 434.525 25.9324 434.365 24.6585C434.205 23.3846 435.108 22.2221 436.382 22.0621L447.794 20.6286C449.067 20.4686 450.23 21.3716 450.39 22.6455Z" fill="#F5C3C1"/>
<path fill-rule="evenodd" clip-rule="evenodd" d="M441.633 4.33653C442.647 5.12418 442.83 6.58467 442.043 7.59863L434.987 16.6817C434.199 17.6956 432.739 17.8791 431.725 17.0915C430.711 16.3038 430.527 14.8433 431.315 13.8293L438.371 4.7463C439.158 3.73234 440.619 3.54888 441.633 4.33653Z" fill="#F5C3C1"/>
<path fill-rule="evenodd" clip-rule="evenodd" d="M446.575 43.71C445.787 44.7239 444.326 44.9074 443.313 44.1197L434.229 37.064C433.215 36.2763 433.032 34.8158 433.82 33.8019C434.607 32.7879 436.068 32.6044 437.082 33.3921L446.165 40.4479C447.179 41.2355 447.362 42.696 446.575 43.71Z" fill="#F5C3C1"/>
<path d="M488.725 73.4253C482.979 73.4253 478.008 72.1612 473.814 69.633C469.677 67.1049 466.545 63.8297 464.419 59.8076C462.293 55.728 461.23 51.3898 461.23 46.7931C461.23 42.1964 462.293 37.8583 464.419 33.7787C466.603 29.6416 469.821 26.309 474.073 23.7808C478.325 21.1952 483.381 19.9023 489.242 19.9023C494.988 19.9023 499.929 21.1664 504.066 23.6946C508.261 26.1654 511.421 29.4405 513.547 33.5201C515.673 37.5997 516.736 41.9378 516.736 46.5346C516.736 51.1887 515.644 55.5843 513.461 59.7214C511.335 63.801 508.146 67.1049 503.894 69.633C499.642 72.1612 494.585 73.4253 488.725 73.4253ZM473.9 45.9312C473.9 49.1489 474.503 52.1368 475.71 54.8948C476.917 57.5954 478.698 59.7788 481.054 61.4451C483.467 63.054 486.311 63.8584 489.586 63.8584C494.126 63.8584 497.659 62.2783 500.188 59.1181C502.773 55.9578 504.066 52.0219 504.066 47.3102C504.066 44.0925 503.463 41.1334 502.256 38.4329C501.05 35.7323 499.24 33.5776 496.826 31.9687C494.47 30.3024 491.655 29.4693 488.38 29.4693C485.334 29.4693 482.72 30.2162 480.537 31.7102C478.353 33.1466 476.687 35.129 475.538 37.6572C474.446 40.1279 473.9 42.8859 473.9 45.9312Z" fill="#051014"/>
<path d="M522.199 20.7642H533.662V36.8815C535.156 31.7102 537.741 27.6018 541.419 24.5565C545.154 21.4537 549.204 19.9023 553.571 19.9023C557.651 19.9023 561.012 21.1952 563.655 23.7808C566.356 26.309 567.764 29.9577 567.879 34.7267C569.545 30.1875 572.102 26.5963 575.549 23.9532C579.054 21.2526 582.847 19.9023 586.926 19.9023C591.121 19.9023 594.539 21.2526 597.183 23.9532C599.883 26.6538 601.233 30.5035 601.233 35.5024V72.4773H588.822V39.1224C588.822 36.1345 588.133 33.8361 586.754 32.2273C585.375 30.6184 583.536 29.814 581.238 29.814C578.997 29.814 576.842 30.6184 574.774 32.2273C572.705 33.7787 571.039 35.9334 569.775 38.6914C568.511 41.4494 567.879 44.5235 567.879 47.9136V72.4773H555.554V39.1224C555.554 36.1919 554.835 33.9223 553.399 32.3135C551.962 30.6472 550.124 29.814 547.883 29.814C545.642 29.814 543.487 30.6184 541.419 32.2273C539.408 33.7787 537.77 35.9334 536.506 38.6914C535.242 41.4494 534.61 44.5235 534.61 47.9136V72.4773H522.199V20.7642Z" fill="#051014"/>
<path d="M0 116.624H11.4631V133.258C12.5548 129.638 14.2498 126.507 16.5482 123.864C18.904 121.221 21.5471 119.21 24.4775 117.831C27.4079 116.452 30.367 115.762 33.3549 115.762C37.7218 115.762 41.3417 117.112 44.2147 119.813C47.1451 122.513 48.6103 126.392 48.6103 131.448V168.337H36.2853V135.327C36.2853 132.224 35.4809 129.839 33.872 128.173C32.3207 126.507 30.2521 125.674 27.6665 125.674C25.1957 125.674 22.7825 126.449 20.4267 128.001C18.0708 129.552 16.146 131.764 14.652 134.637C13.1581 137.51 12.4111 140.814 12.4111 144.549V168.337H0L0 116.624Z" fill="#051014"/>
<path d="M68.3568 169.285C63.8176 169.285 60.1977 168.193 57.4971 166.01C54.7965 163.769 53.4462 160.637 53.4462 156.615C53.4462 153.168 54.3656 150.467 56.2043 148.514C58.043 146.503 60.3988 145.066 63.2717 144.204C66.1447 143.342 69.7071 142.653 73.9591 142.136L83.8707 140.757C87.7779 140.297 90.8233 139.406 93.0067 138.085C95.1902 136.706 96.2819 134.637 96.2819 131.879C96.2819 129.294 95.2189 127.283 93.0929 125.846C91.0244 124.41 88.4962 123.691 85.5083 123.691C83.1525 123.691 80.8829 124.151 78.6994 125.07C76.516 125.99 74.706 127.369 73.2696 129.207C71.8331 131.046 71.0861 133.258 71.0287 135.844H57.8418C57.9568 131.937 59.1634 128.46 61.4618 125.415C63.7601 122.37 66.8054 120.014 70.5977 118.348C74.4475 116.624 78.642 115.762 83.1812 115.762C89.157 115.762 94.0697 117.313 97.9194 120.416C101.827 123.462 103.78 127.972 103.78 133.948V168.337H92.231V154.03C91.1968 156.903 89.5017 159.517 87.1459 161.873C84.7901 164.171 81.9746 165.981 78.6994 167.303C75.4243 168.624 71.9767 169.285 68.3568 169.285ZM66.1159 154.374C66.1159 156.271 66.8629 157.765 68.3568 158.856C69.9082 159.89 71.8618 160.408 74.2176 160.408C76.8033 160.408 79.3889 159.804 81.9746 158.598C84.6177 157.334 86.8299 155.466 88.6111 152.995C90.3923 150.525 91.3691 147.594 91.5415 144.204C89.4155 145.066 87.0597 145.698 84.4741 146.1L76.9757 147.307C74.39 147.709 72.3502 148.14 70.8563 148.6C69.4198 149.002 68.2706 149.663 67.4088 150.582C66.5469 151.501 66.1159 152.766 66.1159 154.374Z" fill="#051014"/>
<path d="M123.551 169.285C119.012 169.285 115.392 168.193 112.691 166.01C109.991 163.769 108.64 160.637 108.64 156.615C108.64 153.168 109.56 150.467 111.399 148.514C113.237 146.503 115.593 145.066 118.466 144.204C121.339 143.342 124.901 142.653 129.153 142.136L139.065 140.757C142.972 140.297 146.018 139.406 148.201 138.085C150.384 136.706 151.476 134.637 151.476 131.879C151.476 129.294 150.413 127.283 148.287 125.846C146.219 124.41 143.69 123.691 140.703 123.691C138.347 123.691 136.077 124.151 133.894 125.07C131.71 125.99 129.9 127.369 128.464 129.207C127.027 131.046 126.28 133.258 126.223 135.844H113.036C113.151 131.937 114.358 128.46 116.656 125.415C118.954 122.37 122 120.014 125.792 118.348C129.642 116.624 133.836 115.762 138.375 115.762C144.351 115.762 149.264 117.313 153.114 120.416C157.021 123.462 158.975 127.972 158.975 133.948V168.337H147.425V154.03C146.391 156.903 144.696 159.517 142.34 161.873C139.984 164.171 137.169 165.981 133.894 167.303C130.619 168.624 127.171 169.285 123.551 169.285ZM121.31 154.374C121.31 156.271 122.057 157.765 123.551 158.856C125.102 159.89 127.056 160.408 129.412 160.408C131.998 160.408 134.583 159.804 137.169 158.598C139.812 157.334 142.024 155.466 143.805 152.995C145.587 150.525 146.563 147.594 146.736 144.204C144.61 145.066 142.254 145.698 139.668 146.1L132.17 147.307C129.584 147.709 127.544 148.14 126.051 148.6C124.614 149.002 123.465 149.663 122.603 150.582C121.741 151.501 121.31 152.766 121.31 154.374Z" fill="#051014"/>
<path d="M166.593 116.624H178.056V132.569C179.377 126.995 181.676 122.829 184.951 120.071C188.226 117.313 191.961 115.934 196.155 115.934C198.913 115.934 201.384 116.624 203.568 118.003V130.155C202.246 129.236 200.752 128.547 199.086 128.087C197.419 127.57 195.724 127.311 194.001 127.311C190.726 127.311 187.709 128.173 184.951 129.897C182.25 131.621 180.268 134.034 179.004 137.137V168.337H166.593V116.624Z" fill="#051014"/>
<path d="M249.649 169.285C245.109 169.285 241.001 168.452 237.324 166.786C233.704 165.119 230.831 162.62 228.705 159.287C226.579 155.897 225.516 151.76 225.516 146.876C225.516 141.36 226.809 136.131 229.394 131.19C232.038 126.248 235.772 122.284 240.599 119.296C245.426 116.25 250.942 114.728 257.147 114.728C263.927 114.728 269.156 116.308 272.833 119.468C276.511 122.571 278.349 126.967 278.349 132.655C278.349 133.977 278.206 135.585 277.919 137.482H259.991C260.279 135.873 260.422 134.379 260.422 133C260.422 127.541 257.98 124.812 253.096 124.812C250.626 124.812 248.385 125.53 246.374 126.967C244.42 128.403 242.897 130.27 241.806 132.569C240.714 134.81 240.168 137.137 240.168 139.55C240.168 143.687 241.547 146.79 244.305 148.858C247.063 150.927 250.654 151.961 255.079 151.961C258.469 151.961 262.002 151.358 265.68 150.151C269.415 148.945 272.719 147.307 275.591 145.238L271.541 163.079C268.036 165.091 264.387 166.642 260.595 167.734C256.86 168.768 253.211 169.285 249.649 169.285Z" fill="#051014"/>
<path d="M305.292 169.285C299.834 169.285 295.208 168.251 291.416 166.182C287.623 164.114 284.808 161.356 282.969 157.908C281.131 154.461 280.211 150.668 280.211 146.531C280.211 141.13 281.676 135.988 284.607 131.104C287.537 126.22 291.646 122.284 296.932 119.296C302.218 116.25 308.194 114.728 314.859 114.728C320.375 114.728 325.001 115.762 328.735 117.831C332.528 119.899 335.343 122.657 337.182 126.105C339.078 129.552 340.026 133.344 340.026 137.482C340.026 142.94 338.561 148.111 335.63 152.995C332.7 157.879 328.563 161.815 323.219 164.803C317.933 167.791 311.957 169.285 305.292 169.285ZM297.88 144.204C297.88 147.652 298.799 150.525 300.638 152.823C302.534 155.121 305.235 156.271 308.74 156.271C311.498 156.271 313.911 155.495 315.979 153.943C318.048 152.335 319.628 150.266 320.72 147.738C321.812 145.152 322.357 142.509 322.357 139.809C322.357 136.361 321.409 133.488 319.513 131.19C317.675 128.891 315.003 127.742 311.498 127.742C308.682 127.742 306.24 128.547 304.172 130.155C302.161 131.764 300.609 133.833 299.517 136.361C298.426 138.889 297.88 141.504 297.88 144.204Z" fill="#051014"/>
<path d="M350.82 115.59H366.592L362.886 131.535C364.495 127.915 366.621 124.841 369.264 122.312C371.907 119.784 374.751 117.888 377.797 116.624C380.842 115.36 383.801 114.728 386.674 114.728C391.156 114.728 394.489 115.906 396.672 118.261C398.913 120.56 400.033 123.519 400.033 127.139C400.033 128.518 399.861 129.954 399.516 131.448L391.07 168.337H374.004L381.503 135.844C381.675 135.154 381.761 134.494 381.761 133.862C381.761 132.253 381.302 130.931 380.382 129.897C379.463 128.863 378.084 128.346 376.245 128.346C374.407 128.346 372.482 128.949 370.471 130.155C368.46 131.305 366.621 133.057 364.955 135.413C363.288 137.769 362.053 140.642 361.249 144.032L355.646 168.337H338.667L350.82 115.59Z" fill="#051014"/>
<path d="M404.923 115.59H422.419L424.316 158.684L445.346 115.59H463.876L435.434 168.337H409.146L404.923 115.59Z" fill="#051014"/>
<path d="M482.041 169.285C477.444 169.285 473.307 168.423 469.63 166.699C466.01 164.976 463.137 162.447 461.011 159.115C458.942 155.725 457.908 151.616 457.908 146.79C457.908 141.389 459.201 136.217 461.787 131.276C464.43 126.334 468.136 122.341 472.905 119.296C477.732 116.25 483.248 114.728 489.453 114.728C495.946 114.728 500.887 116.279 504.278 119.382C507.668 122.427 509.363 126.794 509.363 132.483C509.363 134.609 509.162 136.706 508.759 138.774L508.328 140.929H472.646C472.991 144.606 474.514 147.364 477.214 149.203C479.915 151.042 483.334 151.961 487.471 151.961C490.918 151.961 494.452 151.358 498.072 150.151C501.749 148.945 505.053 147.307 507.984 145.238L503.933 163.079C500.485 165.091 496.865 166.642 493.073 167.734C489.338 168.768 485.661 169.285 482.041 169.285ZM491.866 134.12C492.039 133.258 492.125 132.425 492.125 131.621C492.125 129.61 491.579 127.972 490.487 126.708C489.396 125.444 487.758 124.812 485.575 124.812C482.759 124.812 480.288 125.702 478.162 127.484C476.094 129.207 474.543 131.42 473.508 134.12H491.866Z" fill="#051014"/>
<path d="M520.527 115.59H536.299L532.335 132.569C534.69 126.421 537.736 121.939 541.471 119.123C545.205 116.308 549.199 114.9 553.451 114.9C555.519 114.9 557.502 115.302 559.398 116.107L555.605 132.396C554.571 131.822 553.336 131.362 551.899 131.017C550.463 130.673 548.998 130.5 547.504 130.5C544.573 130.5 541.729 131.19 538.971 132.569C536.271 133.89 534.058 135.7 532.335 137.999L525.353 168.337H508.288L520.527 115.59Z" fill="#051014"/>
<path d="M582.909 169.285C577.68 169.285 572.796 168.596 568.257 167.217C563.775 165.837 560.098 163.798 557.225 161.097C554.409 158.339 552.887 155.064 552.657 151.272H574.032C574.146 154.374 575.554 156.759 578.255 158.425C581.013 160.034 584.173 160.839 587.736 160.839C590.494 160.839 592.792 160.35 594.631 159.373C596.527 158.339 597.475 156.931 597.475 155.15C597.475 153.484 596.642 152.191 594.975 151.272C593.367 150.352 591.068 149.692 588.08 149.289L581.616 148.255C577.537 147.738 574.032 147.048 571.101 146.187C568.171 145.325 565.671 143.859 563.603 141.791C561.592 139.722 560.586 136.878 560.586 133.258C560.586 129.294 561.764 125.932 564.12 123.174C566.533 120.359 569.665 118.261 573.514 116.882C577.422 115.446 581.616 114.728 586.098 114.728C590.58 114.728 594.717 115.446 598.509 116.882C602.359 118.261 605.433 120.33 607.731 123.088C610.087 125.789 611.294 129.006 611.351 132.741H590.407C590.407 129.811 589.431 127.599 587.477 126.105C585.523 124.611 583.225 123.864 580.582 123.864C578.456 123.864 576.646 124.352 575.152 125.329C573.716 126.248 572.997 127.484 572.997 129.035C572.997 130.931 574.032 132.339 576.1 133.258C578.169 134.12 581.214 134.838 585.236 135.413L591.959 136.533C597.705 137.338 602.244 138.746 605.577 140.757C608.909 142.768 610.575 146.1 610.575 150.755C610.575 154.662 609.369 158.023 606.956 160.839C604.542 163.597 601.238 165.694 597.044 167.13C592.849 168.567 588.138 169.285 582.909 169.285Z" fill="#051014"/>
<path d="M622.921 115.59H639.9L627.748 168.337H610.769L622.921 115.59ZM627.317 96.1973H644.468L640.848 111.539H623.783L627.317 96.1973Z" fill="#051014"/>
<path d="M663.68 169.285C659.083 169.285 654.946 168.423 651.269 166.699C647.649 164.976 644.776 162.447 642.65 159.115C640.581 155.725 639.547 151.616 639.547 146.79C639.547 141.389 640.84 136.217 643.425 131.276C646.068 126.334 649.775 122.341 654.544 119.296C659.37 116.25 664.886 114.728 671.092 114.728C677.585 114.728 682.526 116.279 685.916 119.382C689.306 122.427 691.001 126.794 691.001 132.483C691.001 134.609 690.8 136.706 690.398 138.774L689.967 140.929H654.285C654.63 144.606 656.153 147.364 658.853 149.203C661.554 151.042 664.972 151.961 669.11 151.961C672.557 151.961 676.091 151.358 679.711 150.151C683.388 148.945 686.692 147.307 689.622 145.238L685.572 163.079C682.124 165.091 678.504 166.642 674.712 167.734C670.977 168.768 667.3 169.285 663.68 169.285ZM673.505 134.12C673.677 133.258 673.764 132.425 673.764 131.621C673.764 129.61 673.218 127.972 672.126 126.708C671.034 125.444 669.397 124.812 667.213 124.812C664.398 124.812 661.927 125.702 659.801 127.484C657.733 129.207 656.181 131.42 655.147 134.12H673.505Z" fill="#051014"/>
<path d="M721.558 169.285C716.329 169.285 711.445 168.596 706.906 167.217C702.424 165.837 698.747 163.798 695.874 161.097C693.058 158.339 691.536 155.064 691.306 151.272H712.68C712.795 154.374 714.203 156.759 716.904 158.425C719.662 160.034 722.822 160.839 726.384 160.839C729.142 160.839 731.441 160.35 733.279 159.373C735.176 158.339 736.124 156.931 736.124 155.15C736.124 153.484 735.291 152.191 733.624 151.272C732.015 150.352 729.717 149.692 726.729 149.289L720.265 148.255C716.185 147.738 712.68 147.048 709.75 146.187C706.82 145.325 704.32 143.859 702.252 141.791C700.241 139.722 699.235 136.878 699.235 133.258C699.235 129.294 700.413 125.932 702.769 123.174C705.182 120.359 708.314 118.261 712.163 116.882C716.07 115.446 720.265 114.728 724.747 114.728C729.229 114.728 733.366 115.446 737.158 116.882C741.008 118.261 744.082 120.33 746.38 123.088C748.736 125.789 749.943 129.006 750 132.741H729.056C729.056 129.811 728.079 127.599 726.126 126.105C724.172 124.611 721.874 123.864 719.231 123.864C717.105 123.864 715.295 124.352 713.801 125.329C712.364 126.248 711.646 127.484 711.646 129.035C711.646 130.931 712.68 132.339 714.749 133.258C716.817 134.12 719.863 134.838 723.885 135.413L730.608 136.533C736.353 137.338 740.893 138.746 744.225 140.757C747.558 142.768 749.224 146.1 749.224 150.755C749.224 154.662 748.018 158.023 745.604 160.839C743.191 163.597 739.887 165.694 735.693 167.13C731.498 168.567 726.787 169.285 721.558 169.285Z" fill="#051014"/>
</svg>
