<svg width="16" height="16" viewBox="0 0 16 16" fill="none" xmlns="http://www.w3.org/2000/svg">
<path d="M9.87818 7.9987L15.606 2.28423C15.8568 2.0334 15.9977 1.6932 15.9977 1.33847C15.9977 0.983747 15.8568 0.643549 15.606 0.39272C15.3552 0.141891 15.015 0.000976562 14.6602 0.000976562C14.3055 0.000976562 13.9653 0.141891 13.7145 0.39272L8 6.12052L2.28552 0.39272C2.03469 0.141891 1.6945 0.00097656 1.33977 0.000976562C0.985044 0.000976565 0.644846 0.141891 0.394017 0.39272C0.143188 0.643549 0.00227327 0.983747 0.00227327 1.33847C0.00227327 1.6932 0.143188 2.0334 0.394017 2.28423L6.12182 7.9987L0.394017 13.7132C0.269166 13.837 0.17007 13.9843 0.102444 14.1467C0.0348177 14.309 0 14.4831 0 14.6589C0 14.8348 0.0348177 15.0089 0.102444 15.1712C0.17007 15.3335 0.269166 15.4809 0.394017 15.6047C0.517848 15.7295 0.665174 15.8286 0.827496 15.8963C0.989818 15.9639 1.16392 15.9987 1.33977 15.9987C1.51562 15.9987 1.68972 15.9639 1.85204 15.8963C2.01437 15.8286 2.16169 15.7295 2.28552 15.6047L8 9.87689L13.7145 15.6047C13.8383 15.7295 13.9856 15.8286 14.148 15.8963C14.3103 15.9639 14.4844 15.9987 14.6602 15.9987C14.8361 15.9987 15.0102 15.9639 15.1725 15.8963C15.3348 15.8286 15.4822 15.7295 15.606 15.6047C15.7308 15.4809 15.8299 15.3335 15.8976 15.1712C15.9652 15.0089 16 14.8348 16 14.6589C16 14.4831 15.9652 14.309 15.8976 14.1467C15.8299 13.9843 15.7308 13.837 15.606 13.7132L9.87818 7.9987Z" fill="white"/>
</svg>
