<svg width="39" height="39" viewBox="0 0 39 39" fill="none" xmlns="http://www.w3.org/2000/svg">
<circle cx="19.5014" cy="19.5002" r="16" transform="rotate(14.5187 19.5014 19.5002)" fill="#F9D9D9"/>
<path d="M17.3559 13.8363C17.8834 13.9729 18.2132 14.2112 18.3453 14.5513C18.489 14.8944 18.5073 15.2724 18.4004 15.6851C18.2965 16.0865 18.0985 16.4022 17.8064 16.6325C17.5258 16.8657 17.1217 16.914 16.5943 16.7774C16.0898 16.6468 15.76 16.4084 15.6049 16.0624C15.4612 15.7193 15.4414 15.3471 15.5453 14.9458C15.6522 14.533 15.8517 14.2115 16.1438 13.9812C16.4474 13.754 16.8514 13.7057 17.3559 13.8363ZM24.2873 15.6313C24.8147 15.7679 25.1445 16.0062 25.2767 16.3463C25.4203 16.6894 25.4387 17.0673 25.3318 17.4801C25.2279 17.8814 25.0299 18.1972 24.7378 18.4275C24.4571 18.6607 24.0531 18.709 23.5257 18.5724C23.0211 18.4417 22.6913 18.2034 22.5362 17.8573C22.3926 17.5143 22.3728 17.1421 22.4767 16.7408C22.5836 16.328 22.7831 16.0065 23.0752 15.7762C23.3787 15.5489 23.7828 15.5006 24.2873 15.6313Z" fill="#F34213"/>
<path d="M28.0721 22.2787L26.8474 20.842C25.2585 22.2291 21.9726 23.0116 18.8767 22.2098C15.9528 21.4526 13.6088 19.3774 12.5802 17.184L10.8166 17.8284C11.8366 21.0474 14.8457 23.4601 18.2856 24.3509C21.4503 25.1704 25.3618 24.8069 28.0721 22.2787Z" fill="#F34213"/>
</svg>
