<svg width="85" height="85" viewBox="0 0 85 85" fill="none" xmlns="http://www.w3.org/2000/svg">
<path fill-rule="evenodd" clip-rule="evenodd" d="M55.5409 82.1988C53.6701 85.9503 48.2403 85.7148 46.7012 81.8155L28.6112 35.9837C27.0895 32.1283 30.7984 28.267 34.7118 29.6322L81.1413 45.8294C85.0943 47.2084 85.5539 52.6145 81.8903 54.6409L79.6631 50.6145C79.8463 50.5132 79.8233 50.2429 79.6257 50.1739L33.1962 33.9768C33.0006 33.9085 32.8151 34.1016 32.8912 34.2944L50.9812 80.1261C51.0582 80.3211 51.3297 80.3329 51.4232 80.1453L58.041 66.8749C58.6234 65.7069 60.1705 65.4373 61.1138 66.3393L72.375 77.1085C72.4716 77.2009 72.6249 77.1975 72.7174 77.1008L77.655 71.9376C77.7475 71.841 77.744 71.6877 77.6474 71.5952L66.3901 60.8298C65.4458 59.9267 65.648 58.3668 66.7914 57.7343L79.6631 50.6145L81.8903 54.6409L72.188 60.0076L80.8276 68.2698C82.7608 70.1186 82.8293 73.1846 80.9805 75.1178L76.0428 80.281C74.1941 82.2143 71.1281 82.2828 69.1948 80.434L60.5457 72.1627L55.5409 82.1988ZM37.1712 32.605C37.1715 32.6058 37.1718 32.6066 37.1721 32.6073L37.1712 32.605Z" fill="#F34213"/>
<path fill-rule="evenodd" clip-rule="evenodd" d="M9.30054 11.6647C10.1787 10.7464 11.6351 10.7139 12.5534 11.592L20.7795 19.4588C21.6978 20.337 21.7303 21.7933 20.8521 22.7116C19.974 23.6299 18.5176 23.6624 17.5993 22.7843L9.37318 14.9175C8.45488 14.0393 8.42235 12.583 9.30054 11.6647Z" fill="#F34213"/>
<path fill-rule="evenodd" clip-rule="evenodd" d="M37.071 0.0513664C38.3413 0.0229975 39.3941 1.02979 39.4225 2.30009L39.6766 13.6795C39.705 14.9498 38.6982 16.0026 37.4279 16.0309C36.1576 16.0593 35.1048 15.0525 35.0764 13.7822L34.8223 2.40282C34.7939 1.13252 35.8007 0.0797352 37.071 0.0513664Z" fill="#F34213"/>
<path fill-rule="evenodd" clip-rule="evenodd" d="M64.5443 12.9402C65.4626 13.8184 65.4951 15.2747 64.6169 16.193L56.7502 24.4191C55.872 25.3375 54.4157 25.37 53.4974 24.4918C52.5791 23.6136 52.5465 22.1573 53.4247 21.239L61.2915 13.0128C62.1697 12.0945 63.626 12.062 64.5443 12.9402Z" fill="#F34213"/>
<path fill-rule="evenodd" clip-rule="evenodd" d="M24.142 54.8406C25.0603 55.7188 25.0928 57.1751 24.2146 58.0934L16.3478 66.3195C15.4697 67.2378 14.0133 67.2704 13.095 66.3922C12.1767 65.514 12.1442 64.0577 13.0224 63.1394L20.8891 54.9132C21.7673 53.9949 23.2237 53.9624 24.142 54.8406Z" fill="#F34213"/>
<path fill-rule="evenodd" clip-rule="evenodd" d="M0.0501962 38.4079C0.078565 39.6782 1.13135 40.685 2.40165 40.6566L13.7811 40.4025C15.0514 40.3741 16.0581 39.3214 16.0298 38.0511C16.0014 36.7808 14.9486 35.774 13.6783 35.8023L2.29892 36.0565C1.02862 36.0848 0.0218273 37.1376 0.0501962 38.4079Z" fill="#F34213"/>
</svg>
